<svg xmlns="http://www.w3.org/2000/svg" viewBox="0 0 1511 1511" width="1511" height="1511">
<rect width="1511" height="1511" fill="#1e1e1e"/>
<g>
<animateTransform attributeName="transform" type="rotate" from="0 755.5 755.5" to="360 755.5 755.5" dur="74s" repeatCount="indefinite"/>
<g stroke="#ffffff" stroke-opacity="0.16" stroke-width="1"><line x1="891.9" y1="905.4" x2="1064" y2="790.2"/><line x1="891.9" y1="905.4" x2="756.7" y2="932.7"/><line x1="891.9" y1="905.4" x2="986.3" y2="670.4"/><line x1="891.9" y1="905.4" x2="773.2" y2="997.3"/><line x1="891.9" y1="905.4" x2="1052.5" y2="693.3"/><line x1="891.9" y1="905.4" x2="939.9" y2="895.8"/><line x1="891.9" y1="905.4" x2="990.9" y2="1031.3"/><line x1="891.9" y1="905.4" x2="962.8" y2="791.4"/><line x1="891.9" y1="905.4" x2="966.4" y2="1068.3"/><line x1="891.9" y1="905.4" x2="990.8" y2="817"/><line x1="891.9" y1="905.4" x2="895.9" y2="676.8"/><line x1="394.5" y1="895.6" x2="416.8" y2="1006.6"/><line x1="394.5" y1="895.6" x2="117.5" y2="861.8"/><line x1="394.5" y1="895.6" x2="297.1" y2="790.3"/><line x1="394.5" y1="895.6" x2="389.5" y2="857.9"/><line x1="394.5" y1="895.6" x2="317.3" y2="888.6"/><line x1="394.5" y1="895.6" x2="250.7" y2="979.9"/><line x1="394.5" y1="895.6" x2="279.5" y2="852.4"/><line x1="394.5" y1="895.6" x2="421.7" y2="876"/><line x1="394.5" y1="895.6" x2="425.9" y2="919.4"/><line x1="394.5" y1="895.6" x2="492.3" y2="960.4"/><line x1="891.9" y1="905.4" x2="1027.3" y2="946.5"/><line x1="1040.7" y1="378.6" x2="966.2" y2="250.9"/><line x1="1040.7" y1="378.6" x2="1050.3" y2="336.5"/><line x1="1040.7" y1="378.6" x2="1066.4" y2="343.4"/><line x1="1040.7" y1="378.6" x2="1047.3" y2="273.6"/><line x1="1040.7" y1="378.6" x2="1282.5" y2="351.5"/><line x1="891.9" y1="905.4" x2="947.1" y2="714.8"/><line x1="785.8" y1="642.7" x2="769.5" y2="602.7"/><line x1="785.8" y1="642.7" x2="745" y2="638.4"/><line x1="785.8" y1="642.7" x2="652.7" y2="641.1"/><line x1="785.8" y1="642.7" x2="834.9" y2="552.7"/><line x1="785.8" y1="642.7" x2="747.8" y2="622.7"/><line x1="785.8" y1="642.7" x2="827.3" y2="474.8"/><line x1="891.9" y1="905.4" x2="934.7" y2="921.5"/><line x1="548.6" y1="429.9" x2="513.1" y2="416.5"/><line x1="931.7" y1="562.1" x2="962" y2="525.3"/><line x1="931.7" y1="562.1" x2="973.4" y2="536.7"/><line x1="548.6" y1="429.9" x2="523.8" y2="401.2"/><line x1="548.6" y1="429.9" x2="576.3" y2="400.4"/><line x1="548.6" y1="429.9" x2="513.3" y2="447.7"/><line x1="548.6" y1="429.9" x2="532.7" y2="390.5"/><line x1="548.6" y1="429.9" x2="582.4" y2="413.1"/><line x1="548.6" y1="429.9" x2="501.6" y2="413.8"/><line x1="1039.6" y1="772.4" x2="1088.1" y2="800.7"/><line x1="1039.6" y1="772.4" x2="1084.7" y2="814.9"/><line x1="891.9" y1="905.4" x2="876.2" y2="857.4"/><line x1="548.6" y1="429.9" x2="588.3" y2="401.4"/><line x1="548.6" y1="429.9" x2="510.2" y2="431.4"/><line x1="548.6" y1="429.9" x2="543.7" y2="389"/><line x1="548.6" y1="429.9" x2="582.3" y2="453.3"/><line x1="548.6" y1="429.9" x2="511.2" y2="402.9"/><line x1="548.6" y1="429.9" x2="565.6" y2="393.8"/><line x1="891.9" y1="905.4" x2="887.4" y2="944.7"/><line x1="1039.6" y1="772.4" x2="1097" y2="806.7"/><line x1="1218.8" y1="580.2" x2="1260.1" y2="586.6"/><line x1="1218.8" y1="580.2" x2="1251.6" y2="611.9"/><line x1="1218.8" y1="580.2" x2="1257.6" y2="560.1"/><line x1="886.9" y1="586.3" x2="954.6" y2="502"/><line x1="954.6" y1="502" x2="1013.3" y2="508.5"/><line x1="776.7" y1="1174.4" x2="754.6" y2="1150.2"/><line x1="754.6" y1="1150.2" x2="769.3" y2="1067.3"/><line x1="776.7" y1="1174.4" x2="740.5" y2="1147.9"/><line x1="740.5" y1="1147.9" x2="769.3" y2="1067.3"/><line x1="117.5" y1="861.8" x2="72.7" y2="861.1"/><line x1="891.9" y1="905.4" x2="817.9" y2="1004.7"/><line x1="817.9" y1="1004.7" x2="769.3" y2="1067.3"/><line x1="891.9" y1="905.4" x2="828.9" y2="1002.6"/><line x1="828.9" y1="1002.6" x2="769.3" y2="1067.3"/><line x1="891.9" y1="905.4" x2="838.7" y2="1018"/><line x1="838.7" y1="1018" x2="769.3" y2="1067.3"/><line x1="891.9" y1="905.4" x2="812" y2="994.3"/><line x1="812" y1="994.3" x2="769.3" y2="1067.3"/><line x1="891.9" y1="905.4" x2="849.6" y2="1018.1"/><line x1="849.6" y1="1018.1" x2="769.3" y2="1067.3"/><line x1="891.9" y1="905.4" x2="828.2" y2="1013.4"/><line x1="828.2" y1="1013.4" x2="769.3" y2="1067.3"/><line x1="986.3" y1="670.4" x2="1016.3" y2="633.4"/><line x1="394.5" y1="895.6" x2="389" y2="931"/><line x1="394.5" y1="895.6" x2="363" y2="879"/><line x1="776.7" y1="1174.4" x2="777.1" y2="1145.3"/><line x1="777.1" y1="1145.3" x2="769.3" y2="1067.3"/><line x1="548.6" y1="429.9" x2="529.9" y2="463.8"/><line x1="548.6" y1="429.9" x2="522.2" y2="378.3"/><line x1="548.6" y1="429.9" x2="589.8" y2="430.2"/><line x1="548.6" y1="429.9" x2="498.6" y2="427.3"/><line x1="548.6" y1="429.9" x2="555" y2="388.1"/><line x1="548.6" y1="429.9" x2="553.1" y2="472.9"/><line x1="548.6" y1="429.9" x2="519.9" y2="389.7"/><line x1="1218.8" y1="580.2" x2="1271.4" y2="591.4"/><line x1="548.6" y1="429.9" x2="502.6" y2="441.6"/><line x1="891.9" y1="905.4" x2="913.9" y2="878"/><line x1="891.9" y1="905.4" x2="928.8" y2="954"/><line x1="891.9" y1="905.4" x2="864.6" y2="878.7"/><line x1="891.9" y1="905.4" x2="924.6" y2="916.3"/><line x1="548.6" y1="429.9" x2="543" y2="468.7"/><line x1="891.9" y1="905.4" x2="880.6" y2="868.8"/><line x1="891.9" y1="905.4" x2="945.9" y2="922.9"/><line x1="891.9" y1="905.4" x2="858.5" y2="929.1"/><line x1="891.9" y1="905.4" x2="926.5" y2="894"/><line x1="785.8" y1="642.7" x2="755.9" y2="610.1"/><line x1="394.5" y1="895.6" x2="374.6" y2="863.7"/><line x1="1218.8" y1="580.2" x2="1273.3" y2="578.6"/><line x1="548.6" y1="429.9" x2="518.5" y2="458.5"/><line x1="986.3" y1="670.4" x2="1024.7" y2="562.2"/><line x1="1024.7" y1="562.2" x2="1013.3" y2="508.5"/><line x1="1064" y1="790.2" x2="907.7" y2="946.2"/><line x1="907.7" y1="946.2" x2="769.3" y2="1067.3"/><line x1="962.8" y1="791.4" x2="1019.8" y2="721.5"/><line x1="1019.8" y1="721.5" x2="1042.9" y2="671.1"/><line x1="962.8" y1="791.4" x2="1005.4" y2="715.1"/><line x1="1005.4" y1="715.1" x2="1042.9" y2="671.1"/><line x1="891.9" y1="905.4" x2="855.9" y2="870"/><line x1="1027.3" y1="946.5" x2="1084.8" y2="956.1"/><line x1="827.3" y1="474.8" x2="807.4" y2="428.5"/><line x1="834.9" y1="552.7" x2="935.7" y2="486.1"/><line x1="935.7" y1="486.1" x2="1013.3" y2="508.5"/><line x1="827.3" y1="474.8" x2="928.9" y2="456.7"/><line x1="928.9" y1="456.7" x2="1013.3" y2="508.5"/><line x1="652.7" y1="641.1" x2="610.6" y2="657.3"/><line x1="652.7" y1="641.1" x2="608.9" y2="630.8"/><line x1="652.7" y1="641.1" x2="605.3" y2="644.6"/><line x1="827.3" y1="474.8" x2="821.4" y2="423.7"/><line x1="1052.5" y1="693.3" x2="1054.6" y2="573.2"/><line x1="1054.6" y1="573.2" x2="1013.3" y2="508.5"/><line x1="947.1" y1="714.8" x2="994.1" y2="582.4"/><line x1="994.1" y1="582.4" x2="1013.3" y2="508.5"/><line x1="947.1" y1="714.8" x2="984.9" y2="575.9"/><line x1="984.9" y1="575.9" x2="1013.3" y2="508.5"/><line x1="1218.8" y1="580.2" x2="1266.7" y2="603.8"/><line x1="1282.5" y1="351.5" x2="1320.6" y2="345"/><line x1="891.9" y1="905.4" x2="921.5" y2="930.7"/><line x1="1282.5" y1="351.5" x2="1315" y2="376.6"/><line x1="1282.5" y1="351.5" x2="1332" y2="347.9"/><line x1="279.5" y1="852.4" x2="228.6" y2="870.3"/><line x1="228.6" y1="870.3" x2="208.7" y2="913.3"/><line x1="986.3" y1="670.4" x2="1013.5" y2="563.2"/><line x1="1013.5" y1="563.2" x2="1013.3" y2="508.5"/><line x1="776.7" y1="1174.4" x2="798.4" y2="1148.1"/><line x1="798.4" y1="1148.1" x2="769.3" y2="1067.3"/><line x1="1282.5" y1="351.5" x2="1324.9" y2="332.9"/><line x1="1282.5" y1="351.5" x2="1326.8" y2="359.4"/><line x1="1282.5" y1="351.5" x2="1314.5" y2="323.7"/><line x1="966.2" y1="250.9" x2="952" y2="207.6"/><line x1="1282.5" y1="351.5" x2="1325.4" y2="370.5"/><line x1="1047.3" y1="273.6" x2="1037.9" y2="229.7"/><line x1="1047.3" y1="273.6" x2="1055" y2="228.6"/><line x1="966.2" y1="250.9" x2="930.6" y2="224.2"/><line x1="966.2" y1="250.9" x2="938.7" y2="212.8"/><line x1="891.9" y1="905.4" x2="927.8" y2="942.3"/><line x1="891.9" y1="905.4" x2="852.4" y2="919.3"/><line x1="891.9" y1="905.4" x2="924.6" y2="875.6"/><line x1="891.9" y1="905.4" x2="913.7" y2="960"/><line x1="891.9" y1="905.4" x2="853.2" y2="882.7"/><line x1="891.9" y1="905.4" x2="945.8" y2="908.8"/><line x1="891.9" y1="905.4" x2="876.1" y2="945.7"/><line x1="891.9" y1="905.4" x2="916.8" y2="860.5"/><line x1="891.9" y1="905.4" x2="912.3" y2="937.9"/><line x1="891.9" y1="905.4" x2="846.2" y2="890.7"/><line x1="891.9" y1="905.4" x2="934.1" y2="884.1"/><line x1="891.9" y1="905.4" x2="901.6" y2="954.3"/><line x1="891.9" y1="905.4" x2="893.9" y2="864.4"/><line x1="891.9" y1="905.4" x2="936.1" y2="933.5"/><line x1="548.6" y1="429.9" x2="491.5" y2="436.8"/><line x1="548.6" y1="429.9" x2="544.2" y2="375.1"/><line x1="548.6" y1="429.9" x2="564" y2="468.1"/><line x1="548.6" y1="429.9" x2="495.4" y2="404.7"/><line x1="895.9" y1="676.8" x2="898.9" y2="625.1"/><line x1="548.6" y1="429.9" x2="506.1" y2="461.2"/><line x1="891.9" y1="905.4" x2="906.1" y2="867.3"/><line x1="548.6" y1="429.9" x2="585.9" y2="441.4"/><line x1="548.6" y1="429.9" x2="490.5" y2="419.3"/><line x1="548.6" y1="429.9" x2="578.2" y2="388.1"/><line x1="548.6" y1="429.9" x2="532.8" y2="475.6"/><line x1="548.6" y1="429.9" x2="509.7" y2="385.6"/><line x1="548.6" y1="429.9" x2="592.3" y2="418.1"/><line x1="548.6" y1="429.9" x2="497.8" y2="451.8"/><line x1="548.6" y1="429.9" x2="533.4" y2="376.2"/><line x1="548.6" y1="429.9" x2="571.7" y2="459.5"/><line x1="548.6" y1="429.9" x2="502.5" y2="395"/><line x1="891.9" y1="905.4" x2="947.5" y2="886.9"/><line x1="548.6" y1="429.9" x2="517.5" y2="470.6"/><line x1="891.9" y1="905.4" x2="888.7" y2="854.4"/><line x1="891.9" y1="905.4" x2="948.2" y2="934.1"/><line x1="891.9" y1="905.4" x2="846.9" y2="909.5"/><line x1="891.9" y1="905.4" x2="928.2" y2="865.2"/><line x1="891.9" y1="905.4" x2="917.3" y2="950"/><line x1="891.9" y1="905.4" x2="867.1" y2="865.1"/><line x1="891.9" y1="905.4" x2="952.5" y2="899.8"/><line x1="891.9" y1="905.4" x2="867.6" y2="937.2"/><line x1="891.9" y1="905.4" x2="904.3" y2="855.1"/><line x1="891.9" y1="905.4" x2="939.9" y2="945.3"/><line x1="891.9" y1="905.4" x2="851.9" y2="900"/><line x1="891.9" y1="905.4" x2="939" y2="874.3"/><line x1="416.8" y1="1006.6" x2="592.5" y2="1056.2"/><line x1="592.5" y1="1056.2" x2="769.3" y2="1067.3"/><line x1="297.1" y1="790.3" x2="289.7" y2="744.6"/><line x1="117.5" y1="861.8" x2="157.6" y2="889.6"/><line x1="157.6" y1="889.6" x2="208.7" y2="913.3"/><line x1="117.5" y1="861.8" x2="153.8" y2="865.5"/><line x1="153.8" y1="865.5" x2="208.7" y2="913.3"/><line x1="548.6" y1="429.9" x2="567.3" y2="380.7"/><line x1="250.7" y1="979.9" x2="210.1" y2="969.6"/><line x1="210.1" y1="969.6" x2="208.7" y2="913.3"/><line x1="297.1" y1="790.3" x2="238.3" y2="836.9"/><line x1="238.3" y1="836.9" x2="208.7" y2="913.3"/><line x1="425.9" y1="919.4" x2="455.6" y2="901.6"/><line x1="773.2" y1="997.3" x2="750.9" y2="1034.3"/><line x1="773.2" y1="997.3" x2="731.1" y2="1010.4"/><line x1="416.8" y1="1006.6" x2="308.9" y2="975.1"/><line x1="308.9" y1="975.1" x2="208.7" y2="913.3"/><line x1="425.9" y1="919.4" x2="445.3" y2="948.3"/><line x1="548.6" y1="429.9" x2="555.8" y2="375.5"/><line x1="895.9" y1="676.8" x2="811.3" y2="872.7"/><line x1="811.3" y1="872.7" x2="769.3" y2="1067.3"/><line x1="1218.8" y1="580.2" x2="1253.8" y2="549.4"/><line x1="891.9" y1="905.4" x2="954.4" y2="916.5"/><line x1="117.5" y1="861.8" x2="132.9" y2="901.6"/><line x1="132.9" y1="901.6" x2="208.7" y2="913.3"/><line x1="773.2" y1="997.3" x2="738.1" y2="1054.8"/><line x1="738.1" y1="1054.8" x2="769.3" y2="1067.3"/><line x1="416.8" y1="1006.6" x2="600" y2="1048.8"/><line x1="600" y1="1048.8" x2="769.3" y2="1067.3"/><line x1="394.5" y1="895.6" x2="580.4" y2="988.6"/><line x1="580.4" y1="988.6" x2="769.3" y2="1067.3"/><line x1="891.9" y1="905.4" x2="837.2" y2="994.3"/><line x1="837.2" y1="994.3" x2="769.3" y2="1067.3"/><line x1="891.9" y1="905.4" x2="840.2" y2="1006.9"/><line x1="840.2" y1="1006.9" x2="769.3" y2="1067.3"/><line x1="891.9" y1="905.4" x2="820.7" y2="980.9"/><line x1="820.7" y1="980.9" x2="769.3" y2="1067.3"/><line x1="891.9" y1="905.4" x2="852.8" y2="1008.4"/><line x1="852.8" y1="1008.4" x2="769.3" y2="1067.3"/><line x1="891.9" y1="905.4" x2="823" y2="992.6"/><line x1="823" y1="992.6" x2="769.3" y2="1067.3"/><line x1="891.9" y1="905.4" x2="831.9" y2="985.4"/><line x1="831.9" y1="985.4" x2="769.3" y2="1067.3"/><line x1="891.9" y1="905.4" x2="847.3" y2="998"/><line x1="847.3" y1="998" x2="769.3" y2="1067.3"/><line x1="891.9" y1="905.4" x2="810.6" y2="983.1"/><line x1="810.6" y1="983.1" x2="769.3" y2="1067.3"/><line x1="394.5" y1="895.6" x2="298.3" y2="903.8"/><line x1="298.3" y1="903.8" x2="208.7" y2="913.3"/><line x1="317.3" y1="888.6" x2="255.1" y2="891.8"/><line x1="255.1" y1="891.8" x2="208.7" y2="913.3"/><line x1="416.8" y1="1006.6" x2="314" y2="964.4"/><line x1="314" y1="964.4" x2="208.7" y2="913.3"/><line x1="117.5" y1="861.8" x2="148.8" y2="911.9"/><line x1="148.8" y1="911.9" x2="208.7" y2="913.3"/><line x1="416.8" y1="1006.6" x2="301" y2="963.3"/><line x1="301" y1="963.3" x2="208.7" y2="913.3"/><line x1="279.5" y1="852.4" x2="229.1" y2="857.6"/><line x1="229.1" y1="857.6" x2="208.7" y2="913.3"/><line x1="117.5" y1="861.8" x2="143.9" y2="887.6"/><line x1="143.9" y1="887.6" x2="208.7" y2="913.3"/><line x1="279.5" y1="852.4" x2="218.2" y2="861.3"/><line x1="218.2" y1="861.3" x2="208.7" y2="913.3"/><line x1="250.7" y1="979.9" x2="224.6" y2="951.8"/><line x1="224.6" y1="951.8" x2="208.7" y2="913.3"/><line x1="250.7" y1="979.9" x2="197.6" y2="969.8"/><line x1="197.6" y1="969.8" x2="208.7" y2="913.3"/><line x1="416.8" y1="1006.6" x2="308.8" y2="954.7"/><line x1="308.8" y1="954.7" x2="208.7" y2="913.3"/><line x1="416.8" y1="1006.6" x2="298.7" y2="975.1"/><line x1="298.7" y1="975.1" x2="208.7" y2="913.3"/><line x1="250.7" y1="979.9" x2="213.1" y2="957"/><line x1="213.1" y1="957" x2="208.7" y2="913.3"/><line x1="117.5" y1="861.8" x2="167.5" y2="867.5"/><line x1="167.5" y1="867.5" x2="208.7" y2="913.3"/><line x1="117.5" y1="861.8" x2="144.4" y2="899.5"/><line x1="144.4" y1="899.5" x2="208.7" y2="913.3"/><line x1="117.5" y1="861.8" x2="165.5" y2="879.9"/><line x1="165.5" y1="879.9" x2="208.7" y2="913.3"/><line x1="117.5" y1="861.8" x2="156.8" y2="901.3"/><line x1="156.8" y1="901.3" x2="208.7" y2="913.3"/><line x1="117.5" y1="861.8" x2="152.8" y2="877.6"/><line x1="152.8" y1="877.6" x2="208.7" y2="913.3"/><line x1="117.5" y1="861.8" x2="162.5" y2="856.7"/><line x1="162.5" y1="856.7" x2="208.7" y2="913.3"/><line x1="117.5" y1="861.8" x2="137.2" y2="913.3"/><line x1="137.2" y1="913.3" x2="208.7" y2="913.3"/><line x1="250.7" y1="979.9" x2="199.5" y2="957.7"/><line x1="199.5" y1="957.7" x2="208.7" y2="913.3"/><line x1="279.5" y1="852.4" x2="238.2" y2="876.3"/><line x1="238.2" y1="876.3" x2="208.7" y2="913.3"/><line x1="317.3" y1="888.6" x2="256.4" y2="906.3"/><line x1="256.4" y1="906.3" x2="208.7" y2="913.3"/><line x1="394.5" y1="895.6" x2="405.9" y2="861.1"/><line x1="297.1" y1="790.3" x2="276.6" y2="747.1"/><line x1="776.7" y1="1174.4" x2="763" y2="1129.8"/><line x1="763" y1="1129.8" x2="769.3" y2="1067.3"/><line x1="891.9" y1="905.4" x2="933.8" y2="906.8"/><line x1="891.9" y1="905.4" x2="891.7" y2="956.6"/><line x1="1218.8" y1="580.2" x2="1269.5" y2="563.4"/><line x1="966.4" y1="1068.3" x2="867.9" y2="1095.9"/><line x1="867.9" y1="1095.9" x2="769.3" y2="1067.3"/><line x1="1027.3" y1="946.5" x2="1081.4" y2="969.9"/><line x1="1052.5" y1="693.3" x2="1080.4" y2="650.8"/><line x1="776.7" y1="1174.4" x2="788.3" y2="1140.7"/><line x1="788.3" y1="1140.7" x2="769.3" y2="1067.3"/><line x1="776.7" y1="1174.4" x2="740.1" y2="1134.2"/><line x1="740.1" y1="1134.2" x2="769.3" y2="1067.3"/><line x1="776.7" y1="1174.4" x2="787.3" y2="1129.1"/><line x1="787.3" y1="1129.1" x2="769.3" y2="1067.3"/><line x1="776.7" y1="1174.4" x2="767" y2="1140.4"/><line x1="767" y1="1140.4" x2="769.3" y2="1067.3"/><line x1="776.7" y1="1174.4" x2="751.9" y2="1127.5"/><line x1="751.9" y1="1127.5" x2="769.3" y2="1067.3"/><line x1="776.7" y1="1174.4" x2="800" y2="1135.6"/><line x1="800" y1="1135.6" x2="769.3" y2="1067.3"/><line x1="776.7" y1="1174.4" x2="750.9" y2="1139.8"/><line x1="750.9" y1="1139.8" x2="769.3" y2="1067.3"/><line x1="776.7" y1="1174.4" x2="775.2" y2="1127.8"/><line x1="775.2" y1="1127.8" x2="769.3" y2="1067.3"/><line x1="492.3" y1="960.4" x2="654.1" y2="1042.7"/><line x1="654.1" y1="1042.7" x2="769.3" y2="1067.3"/><line x1="1218.8" y1="580.2" x2="1128.6" y2="526.1"/><line x1="1128.6" y1="526.1" x2="1013.3" y2="508.5"/><line x1="1218.8" y1="580.2" x2="1261.8" y2="573.1"/><line x1="1218.8" y1="580.2" x2="1256.1" y2="600.4"/><line x1="931.7" y1="562.1" x2="975.9" y2="495.6"/><line x1="975.9" y1="495.6" x2="1013.3" y2="508.5"/><line x1="990.9" y1="1031.3" x2="1033" y2="1065"/><line x1="895.9" y1="676.8" x2="867.9" y2="641.2"/><line x1="1064" y1="790.2" x2="1111.3" y2="785"/><line x1="966.4" y1="1068.3" x2="1008" y2="1107.3"/><line x1="895.9" y1="676.8" x2="878.3" y2="636.6"/><line x1="1052.5" y1="693.3" x2="1098.8" y2="671.9"/><line x1="773.2" y1="997.3" x2="737" y2="1024.7"/><line x1="895.9" y1="676.8" x2="895" y2="635.3"/><line x1="895.9" y1="676.8" x2="918.4" y2="640.7"/><line x1="1064" y1="790.2" x2="1096" y2="754.2"/><line x1="986.3" y1="670.4" x2="1007.6" y2="624.5"/><line x1="756.7" y1="932.7" x2="716.4" y2="951.2"/><line x1="416.8" y1="1006.6" x2="591.7" y2="1043.4"/><line x1="591.7" y1="1043.4" x2="769.3" y2="1067.3"/><line x1="250.7" y1="979.9" x2="233.4" y2="1020.6"/><line x1="297.1" y1="790.3" x2="266" y2="754"/><line x1="117.5" y1="861.8" x2="83.8" y2="831.9"/><line x1="117.5" y1="861.8" x2="75.3" y2="845.3"/><line x1="416.8" y1="1006.6" x2="414.4" y2="1047.6"/><line x1="416.8" y1="1006.6" x2="397.8" y2="1043.2"/><line x1="895.9" y1="676.8" x2="954.5" y2="573.4"/><line x1="954.5" y1="573.4" x2="1013.3" y2="508.5"/><line x1="895.9" y1="676.8" x2="882.2" y2="626.7"/><line x1="895.9" y1="676.8" x2="910.4" y2="631.7"/><line x1="895.9" y1="676.8" x2="948.9" y2="564"/><line x1="948.9" y1="564" x2="1013.3" y2="508.5"/><line x1="990.8" y1="817" x2="1031.6" y2="801.7"/><line x1="990.8" y1="817" x2="1013.5" y2="778.5"/><line x1="990.8" y1="817" x2="1024" y2="787"/><line x1="990.8" y1="817" x2="999.4" y2="774"/><line x1="966.4" y1="1068.3" x2="998" y2="1114.5"/><line x1="966.4" y1="1068.3" x2="1016.8" y2="1098.5"/><line x1="990.9" y1="1031.3" x2="1021.8" y2="1073.6"/><line x1="990.9" y1="1031.3" x2="1007.5" y2="1080.2"/><line x1="1052.5" y1="693.3" x2="1091" y2="652.7"/><line x1="1052.5" y1="693.3" x2="1098.9" y2="661"/><line x1="756.7" y1="932.7" x2="711.8" y2="927.9"/><line x1="756.7" y1="932.7" x2="720.8" y2="963"/><line x1="756.7" y1="932.7" x2="708.8" y2="942.2"/><line x1="1064" y1="790.2" x2="1106.1" y2="771.1"/><line x1="1064" y1="790.2" x2="1117.5" y2="796.1"/><line x1="1064" y1="790.2" x2="1107.3" y2="757.7"/><line x1="1064" y1="790.2" x2="1116.9" y2="767.3"/><line x1="1064" y1="790.2" x2="1121.4" y2="780.7"/><line x1="1064" y1="790.2" x2="1053.5" y2="629.3"/><line x1="1053.5" y1="629.3" x2="1013.3" y2="508.5"/><line x1="891.9" y1="905.4" x2="785.8" y2="642.7"/><line x1="852" y1="678" x2="1039.6" y2="772.4"/><line x1="852" y1="678" x2="891.9" y2="905.4"/><line x1="852" y1="678" x2="785.8" y2="642.7"/><line x1="852" y1="678" x2="931.7" y2="562.1"/><line x1="852" y1="678" x2="827.7" y2="701.1"/><line x1="852" y1="678" x2="548.6" y2="429.9"/><line x1="852" y1="678" x2="815.8" y2="681.8"/><line x1="852" y1="678" x2="817.9" y2="663.1"/><line x1="852" y1="678" x2="394.5" y2="895.6"/><line x1="852" y1="678" x2="1218.8" y2="580.2"/><line x1="852" y1="678" x2="776.7" y2="1174.4"/><line x1="852" y1="678" x2="1040.7" y2="378.6"/><line x1="852" y1="678" x2="829.1" y2="647.3"/><line x1="852" y1="678" x2="886.9" y2="586.3"/></g>
<g fill="#8b8f98"><circle cx="1039.6" cy="772.4" r="4.02"/><circle cx="891.9" cy="905.4" r="15.48"/><circle cx="785.8" cy="642.7" r="5.69"/><circle cx="931.7" cy="562.1" r="4.02"/><circle cx="827.7" cy="701.1" r="2.55"/><circle cx="548.6" cy="429.9" r="11.8"/><circle cx="815.8" cy="681.8" r="2.55"/><circle cx="817.9" cy="663.1" r="2.55"/><circle cx="394.5" cy="895.6" r="7.64"/><circle cx="1218.8" cy="580.2" r="6.49"/><circle cx="776.7" cy="1174.4" r="6.97"/><circle cx="1040.7" cy="378.6" r="4.76"/><circle cx="829.1" cy="647.3" r="2.55"/><circle cx="886.9" cy="586.3" r="3.12"/><circle cx="1064" cy="790.2" r="5.97"/><circle cx="756.7" cy="932.7" r="4.41"/><circle cx="986.3" cy="670.4" r="4.41"/><circle cx="773.2" cy="997.3" r="4.41"/><circle cx="1052.5" cy="693.3" r="4.76"/><circle cx="939.9" cy="895.8" r="2.55"/><circle cx="990.9" cy="1031.3" r="4.02"/><circle cx="962.8" cy="791.4" r="3.6"/><circle cx="966.4" cy="1068.3" r="4.41"/><circle cx="990.8" cy="817" r="4.41"/><circle cx="895.9" cy="676.8" r="6.24"/><circle cx="416.8" cy="1006.6" r="6.24"/><circle cx="117.5" cy="861.8" r="7.42"/><circle cx="297.1" cy="790.3" r="4.41"/><circle cx="389.5" cy="857.9" r="2.55"/><circle cx="317.3" cy="888.6" r="3.6"/><circle cx="250.7" cy="979.9" r="5.09"/><circle cx="279.5" cy="852.4" r="4.41"/><circle cx="421.7" cy="876" r="2.55"/><circle cx="425.9" cy="919.4" r="3.6"/><circle cx="492.3" cy="960.4" r="3.12"/><circle cx="1027.3" cy="946.5" r="3.6"/><circle cx="966.2" cy="250.9" r="4.02"/><circle cx="1050.3" cy="336.5" r="2.55"/><circle cx="1066.4" cy="343.4" r="2.55"/><circle cx="1047.3" cy="273.6" r="3.6"/><circle cx="1282.5" cy="351.5" r="5.4"/><circle cx="947.1" cy="714.8" r="3.6"/><circle cx="769.5" cy="602.7" r="2.55"/><circle cx="745" cy="638.4" r="2.55"/><circle cx="652.7" cy="641.1" r="4.02"/><circle cx="834.9" cy="552.7" r="3.12"/><circle cx="747.8" cy="622.7" r="2.55"/><circle cx="827.3" cy="474.8" r="4.02"/><circle cx="934.7" cy="921.5" r="2.55"/><circle cx="513.1" cy="416.5" r="2.55"/><circle cx="962" cy="525.3" r="2.55"/><circle cx="973.4" cy="536.7" r="2.55"/><circle cx="523.8" cy="401.2" r="2.55"/><circle cx="576.3" cy="400.4" r="2.55"/><circle cx="513.3" cy="447.7" r="2.55"/><circle cx="532.7" cy="390.5" r="2.55"/><circle cx="582.4" cy="413.1" r="2.55"/><circle cx="501.6" cy="413.8" r="2.55"/><circle cx="1088.1" cy="800.7" r="2.55"/><circle cx="1084.7" cy="814.9" r="2.55"/><circle cx="876.2" cy="857.4" r="2.55"/><circle cx="588.3" cy="401.4" r="2.55"/><circle cx="510.2" cy="431.4" r="2.55"/><circle cx="543.7" cy="389" r="2.55"/><circle cx="582.3" cy="453.3" r="2.55"/><circle cx="511.2" cy="402.9" r="2.55"/><circle cx="565.6" cy="393.8" r="2.55"/><circle cx="887.4" cy="944.7" r="2.55"/><circle cx="1097" cy="806.7" r="2.55"/><circle cx="1260.1" cy="586.6" r="2.55"/><circle cx="1251.6" cy="611.9" r="2.55"/><circle cx="1257.6" cy="560.1" r="2.55"/><circle cx="954.6" cy="502" r="3.12"/><circle cx="1013.3" cy="508.5" r="6.73"/><circle cx="754.6" cy="1150.2" r="3.12"/><circle cx="769.3" cy="1067.3" r="10.95"/><circle cx="740.5" cy="1147.9" r="3.12"/><circle cx="72.7" cy="861.1" r="2.55"/><circle cx="817.9" cy="1004.7" r="3.12"/><circle cx="828.9" cy="1002.6" r="3.12"/><circle cx="838.7" cy="1018" r="3.12"/><circle cx="812" cy="994.3" r="3.12"/><circle cx="849.6" cy="1018.1" r="3.12"/><circle cx="828.2" cy="1013.4" r="3.12"/><circle cx="1016.3" cy="633.4" r="2.55"/><circle cx="389" cy="931" r="2.55"/><circle cx="363" cy="879" r="2.55"/><circle cx="777.1" cy="1145.3" r="3.12"/><circle cx="529.9" cy="463.8" r="2.55"/><circle cx="522.2" cy="378.3" r="2.55"/><circle cx="589.8" cy="430.2" r="2.55"/><circle cx="498.6" cy="427.3" r="2.55"/><circle cx="555" cy="388.1" r="2.55"/><circle cx="553.1" cy="472.9" r="2.55"/><circle cx="519.9" cy="389.7" r="2.55"/><circle cx="1271.4" cy="591.4" r="2.55"/><circle cx="502.6" cy="441.6" r="2.55"/><circle cx="913.9" cy="878" r="2.55"/><circle cx="928.8" cy="954" r="2.55"/><circle cx="864.6" cy="878.7" r="2.55"/><circle cx="924.6" cy="916.3" r="2.55"/><circle cx="543" cy="468.7" r="2.55"/><circle cx="880.6" cy="868.8" r="2.55"/><circle cx="945.9" cy="922.9" r="2.55"/><circle cx="858.5" cy="929.1" r="2.55"/><circle cx="926.5" cy="894" r="2.55"/><circle cx="755.9" cy="610.1" r="2.55"/><circle cx="374.6" cy="863.7" r="2.55"/><circle cx="1273.3" cy="578.6" r="2.55"/><circle cx="518.5" cy="458.5" r="2.55"/><circle cx="1024.7" cy="562.2" r="3.12"/><circle cx="907.7" cy="946.2" r="3.12"/><circle cx="1019.8" cy="721.5" r="3.12"/><circle cx="1042.9" cy="671.1" r="3.12"/><circle cx="1005.4" cy="715.1" r="3.12"/><circle cx="855.9" cy="870" r="2.55"/><circle cx="1084.8" cy="956.1" r="2.55"/><circle cx="807.4" cy="428.5" r="2.55"/><circle cx="935.7" cy="486.1" r="3.12"/><circle cx="928.9" cy="456.7" r="3.12"/><circle cx="610.6" cy="657.3" r="2.55"/><circle cx="608.9" cy="630.8" r="2.55"/><circle cx="605.3" cy="644.6" r="2.55"/><circle cx="821.4" cy="423.7" r="2.55"/><circle cx="1054.6" cy="573.2" r="3.12"/><circle cx="994.1" cy="582.4" r="3.12"/><circle cx="984.9" cy="575.9" r="3.12"/><circle cx="1266.7" cy="603.8" r="2.55"/><circle cx="1320.6" cy="345" r="2.55"/><circle cx="921.5" cy="930.7" r="2.55"/><circle cx="1315" cy="376.6" r="2.55"/><circle cx="1332" cy="347.9" r="2.55"/><circle cx="228.6" cy="870.3" r="3.12"/><circle cx="208.7" cy="913.3" r="10.02"/><circle cx="1013.5" cy="563.2" r="3.12"/><circle cx="798.4" cy="1148.1" r="3.12"/><circle cx="1324.9" cy="332.9" r="2.55"/><circle cx="1326.8" cy="359.4" r="2.55"/><circle cx="1314.5" cy="323.7" r="2.55"/><circle cx="952" cy="207.6" r="2.55"/><circle cx="1325.4" cy="370.5" r="2.55"/><circle cx="1037.9" cy="229.7" r="2.55"/><circle cx="1055" cy="228.6" r="2.55"/><circle cx="930.6" cy="224.2" r="2.55"/><circle cx="938.7" cy="212.8" r="2.55"/><circle cx="927.8" cy="942.3" r="2.55"/><circle cx="852.4" cy="919.3" r="2.55"/><circle cx="924.6" cy="875.6" r="2.55"/><circle cx="913.7" cy="960" r="2.55"/><circle cx="853.2" cy="882.7" r="2.55"/><circle cx="945.8" cy="908.8" r="2.55"/><circle cx="876.1" cy="945.7" r="2.55"/><circle cx="916.8" cy="860.5" r="2.55"/><circle cx="912.3" cy="937.9" r="2.55"/><circle cx="846.2" cy="890.7" r="2.55"/><circle cx="934.1" cy="884.1" r="2.55"/><circle cx="901.6" cy="954.3" r="2.55"/><circle cx="893.9" cy="864.4" r="2.55"/><circle cx="936.1" cy="933.5" r="2.55"/><circle cx="491.5" cy="436.8" r="2.55"/><circle cx="544.2" cy="375.1" r="2.55"/><circle cx="564" cy="468.1" r="2.55"/><circle cx="495.4" cy="404.7" r="2.55"/><circle cx="898.9" cy="625.1" r="2.55"/><circle cx="506.1" cy="461.2" r="2.55"/><circle cx="906.1" cy="867.3" r="2.55"/><circle cx="585.9" cy="441.4" r="2.55"/><circle cx="490.5" cy="419.3" r="2.55"/><circle cx="578.2" cy="388.1" r="2.55"/><circle cx="532.8" cy="475.6" r="2.55"/><circle cx="509.7" cy="385.6" r="2.55"/><circle cx="592.3" cy="418.1" r="2.55"/><circle cx="497.8" cy="451.8" r="2.55"/><circle cx="533.4" cy="376.2" r="2.55"/><circle cx="571.7" cy="459.5" r="2.55"/><circle cx="502.5" cy="395" r="2.55"/><circle cx="947.5" cy="886.9" r="2.55"/><circle cx="517.5" cy="470.6" r="2.55"/><circle cx="888.7" cy="854.4" r="2.55"/><circle cx="948.2" cy="934.1" r="2.55"/><circle cx="846.9" cy="909.5" r="2.55"/><circle cx="928.2" cy="865.2" r="2.55"/><circle cx="917.3" cy="950" r="2.55"/><circle cx="867.1" cy="865.1" r="2.55"/><circle cx="952.5" cy="899.8" r="2.55"/><circle cx="867.6" cy="937.2" r="2.55"/><circle cx="904.3" cy="855.1" r="2.55"/><circle cx="939.9" cy="945.3" r="2.55"/><circle cx="851.9" cy="900" r="2.55"/><circle cx="939" cy="874.3" r="2.55"/><circle cx="592.5" cy="1056.2" r="3.12"/><circle cx="289.7" cy="744.6" r="2.55"/><circle cx="157.6" cy="889.6" r="3.12"/><circle cx="153.8" cy="865.5" r="3.12"/><circle cx="567.3" cy="380.7" r="2.55"/><circle cx="210.1" cy="969.6" r="3.12"/><circle cx="238.3" cy="836.9" r="3.12"/><circle cx="455.6" cy="901.6" r="2.55"/><circle cx="750.9" cy="1034.3" r="2.55"/><circle cx="731.1" cy="1010.4" r="2.55"/><circle cx="308.9" cy="975.1" r="3.12"/><circle cx="445.3" cy="948.3" r="2.55"/><circle cx="555.8" cy="375.5" r="2.55"/><circle cx="811.3" cy="872.7" r="3.12"/><circle cx="1253.8" cy="549.4" r="2.55"/><circle cx="954.4" cy="916.5" r="2.55"/><circle cx="132.9" cy="901.6" r="3.12"/><circle cx="738.1" cy="1054.8" r="3.12"/><circle cx="600" cy="1048.8" r="3.12"/><circle cx="580.4" cy="988.6" r="3.12"/><circle cx="837.2" cy="994.3" r="3.12"/><circle cx="840.2" cy="1006.9" r="3.12"/><circle cx="820.7" cy="980.9" r="3.12"/><circle cx="852.8" cy="1008.4" r="3.12"/><circle cx="823" cy="992.6" r="3.12"/><circle cx="831.9" cy="985.4" r="3.12"/><circle cx="847.3" cy="998" r="3.12"/><circle cx="810.6" cy="983.1" r="3.12"/><circle cx="298.3" cy="903.8" r="3.12"/><circle cx="255.1" cy="891.8" r="3.12"/><circle cx="314" cy="964.4" r="3.12"/><circle cx="148.8" cy="911.9" r="3.12"/><circle cx="301" cy="963.3" r="3.12"/><circle cx="229.1" cy="857.6" r="3.12"/><circle cx="143.9" cy="887.6" r="3.12"/><circle cx="218.2" cy="861.3" r="3.12"/><circle cx="224.6" cy="951.8" r="3.12"/><circle cx="197.6" cy="969.8" r="3.12"/><circle cx="308.8" cy="954.7" r="3.12"/><circle cx="298.7" cy="975.1" r="3.12"/><circle cx="213.1" cy="957" r="3.12"/><circle cx="167.5" cy="867.5" r="3.12"/><circle cx="144.4" cy="899.5" r="3.12"/><circle cx="165.5" cy="879.9" r="3.12"/><circle cx="156.8" cy="901.3" r="3.12"/><circle cx="152.8" cy="877.6" r="3.12"/><circle cx="162.5" cy="856.7" r="3.12"/><circle cx="137.2" cy="913.3" r="3.12"/><circle cx="199.5" cy="957.7" r="3.12"/><circle cx="238.2" cy="876.3" r="3.12"/><circle cx="256.4" cy="906.3" r="3.12"/><circle cx="405.9" cy="861.1" r="2.55"/><circle cx="276.6" cy="747.1" r="2.55"/><circle cx="763" cy="1129.8" r="3.12"/><circle cx="933.8" cy="906.8" r="2.55"/><circle cx="891.7" cy="956.6" r="2.55"/><circle cx="1269.5" cy="563.4" r="2.55"/><circle cx="867.9" cy="1095.9" r="3.12"/><circle cx="1081.4" cy="969.9" r="2.55"/><circle cx="1080.4" cy="650.8" r="2.55"/><circle cx="788.3" cy="1140.7" r="3.12"/><circle cx="740.1" cy="1134.2" r="3.12"/><circle cx="787.3" cy="1129.1" r="3.12"/><circle cx="767" cy="1140.4" r="3.12"/><circle cx="751.9" cy="1127.5" r="3.12"/><circle cx="800" cy="1135.6" r="3.12"/><circle cx="750.9" cy="1139.8" r="3.12"/><circle cx="775.2" cy="1127.8" r="3.12"/><circle cx="654.1" cy="1042.7" r="3.12"/><circle cx="1128.6" cy="526.1" r="3.12"/><circle cx="1261.8" cy="573.1" r="2.55"/><circle cx="1256.1" cy="600.4" r="2.55"/><circle cx="975.9" cy="495.6" r="3.12"/><circle cx="1033" cy="1065" r="2.55"/><circle cx="867.9" cy="641.2" r="2.55"/><circle cx="1111.3" cy="785" r="2.55"/><circle cx="1008" cy="1107.3" r="2.55"/><circle cx="878.3" cy="636.6" r="2.55"/><circle cx="1098.8" cy="671.9" r="2.55"/><circle cx="737" cy="1024.7" r="2.55"/><circle cx="895" cy="635.3" r="2.55"/><circle cx="918.4" cy="640.7" r="2.55"/><circle cx="1096" cy="754.2" r="2.55"/><circle cx="1007.6" cy="624.5" r="2.55"/><circle cx="716.4" cy="951.2" r="2.55"/><circle cx="591.7" cy="1043.4" r="3.12"/><circle cx="233.4" cy="1020.6" r="2.55"/><circle cx="266" cy="754" r="2.55"/><circle cx="83.8" cy="831.9" r="2.55"/><circle cx="75.3" cy="845.3" r="2.55"/><circle cx="414.4" cy="1047.6" r="2.55"/><circle cx="397.8" cy="1043.2" r="2.55"/><circle cx="954.5" cy="573.4" r="3.12"/><circle cx="882.2" cy="626.7" r="2.55"/><circle cx="910.4" cy="631.7" r="2.55"/><circle cx="948.9" cy="564" r="3.12"/><circle cx="1031.6" cy="801.7" r="2.55"/><circle cx="1013.5" cy="778.5" r="2.55"/><circle cx="1024" cy="787" r="2.55"/><circle cx="999.4" cy="774" r="2.55"/><circle cx="998" cy="1114.5" r="2.55"/><circle cx="1016.8" cy="1098.5" r="2.55"/><circle cx="1021.8" cy="1073.6" r="2.55"/><circle cx="1007.5" cy="1080.2" r="2.55"/><circle cx="1091" cy="652.7" r="2.55"/><circle cx="1098.9" cy="661" r="2.55"/><circle cx="711.8" cy="927.9" r="2.55"/><circle cx="720.8" cy="963" r="2.55"/><circle cx="708.8" cy="942.2" r="2.55"/><circle cx="1106.1" cy="771.1" r="2.55"/><circle cx="1117.5" cy="796.1" r="2.55"/><circle cx="1107.3" cy="757.7" r="2.55"/><circle cx="1116.9" cy="767.3" r="2.55"/><circle cx="1121.4" cy="780.7" r="2.55"/><circle cx="1053.5" cy="629.3" r="3.12"/></g>
<circle cx="852" cy="678" r="3.6" fill="#d4d4d8"/>
<g transform="translate(852,678)">
<g>
<animateTransform attributeName="transform" type="rotate" from="0 0 0" to="-360 0 0" dur="74s" repeatCount="indefinite"/>
<text x="0" y="8.6" text-anchor="middle" font-family="sans-serif" font-size="27" fill="#f1f5f9" fill-opacity="0.95" dominant-baseline="hanging">Multiverso</text>
</g>
</g>
</g>
</svg>