<svg xmlns="http://www.w3.org/2000/svg" viewBox="0 0 1504 1504" width="1504" height="1504" font-family="-apple-system,Segoe UI,Roboto,sans-serif">
<defs>
<radialGradient id="bg" cx="50%" cy="50%" r="65%">
<stop offset="0%" stop-color="#14161c"/>
<stop offset="60%" stop-color="#0d0f14"/>
<stop offset="100%" stop-color="#090a0e"/>
</radialGradient>
<radialGradient id="core" cx="50%" cy="50%" r="50%">
<stop offset="0%" stop-color="#8b5cf6" stop-opacity="0.30"/>
<stop offset="45%" stop-color="#7c4ddb" stop-opacity="0.10"/>
<stop offset="100%" stop-color="#7c4ddb" stop-opacity="0"/>
</radialGradient>
<filter id="glow" x="-60%" y="-60%" width="220%" height="220%">
<feGaussianBlur stdDeviation="3.2" result="b"/>
<feMerge><feMergeNode in="b"/><feMergeNode in="SourceGraphic"/></feMerge>
</filter>
<style>
.edges line{stroke:#5566aa;stroke-width:0.55;stroke-opacity:0.30}
.leaf{fill:#9aa4b4}
.mid{fill:#d3dae4}
.hub{fill:#f2f5fa}
.root{fill:#d6b8ff}
.tw{animation:tw 3.6s ease-in-out infinite;animation-delay:calc(var(--o)*1s)}
@keyframes tw{0%,100%{opacity:1}50%{opacity:.42}}
</style>
</defs>
<rect width="1504" height="1504" fill="url(#bg)" rx="18"/>
<circle cx="752" cy="752" r="298" fill="url(#core)"/>
<g>
<animateTransform attributeName="transform" type="rotate" from="0 752 752" to="360 752 752" dur="54s" repeatCount="indefinite"/>
<g class="edges"><line x1="888.4" y1="901.9" x2="1060.5" y2="786.7"/><line x1="888.4" y1="901.9" x2="753.2" y2="929.2"/><line x1="888.4" y1="901.9" x2="982.8" y2="666.9"/><line x1="888.4" y1="901.9" x2="769.7" y2="993.8"/><line x1="888.4" y1="901.9" x2="1049.0" y2="689.8"/><line x1="888.4" y1="901.9" x2="936.4" y2="892.3"/><line x1="888.4" y1="901.9" x2="987.4" y2="1027.8"/><line x1="888.4" y1="901.9" x2="959.3" y2="787.9"/><line x1="888.4" y1="901.9" x2="962.9" y2="1064.8"/><line x1="888.4" y1="901.9" x2="987.3" y2="813.5"/><line x1="888.4" y1="901.9" x2="892.4" y2="673.3"/><line x1="391.0" y1="892.1" x2="413.3" y2="1003.1"/><line x1="391.0" y1="892.1" x2="114.0" y2="858.3"/><line x1="391.0" y1="892.1" x2="293.6" y2="786.8"/><line x1="391.0" y1="892.1" x2="386.0" y2="854.4"/><line x1="391.0" y1="892.1" x2="313.8" y2="885.1"/><line x1="391.0" y1="892.1" x2="247.2" y2="976.4"/><line x1="391.0" y1="892.1" x2="276.0" y2="848.9"/><line x1="391.0" y1="892.1" x2="418.2" y2="872.5"/><line x1="391.0" y1="892.1" x2="422.4" y2="915.9"/><line x1="391.0" y1="892.1" x2="488.8" y2="956.9"/><line x1="888.4" y1="901.9" x2="1023.8" y2="943.0"/><line x1="1037.2" y1="375.1" x2="962.7" y2="247.4"/><line x1="1037.2" y1="375.1" x2="1046.8" y2="333.0"/><line x1="1037.2" y1="375.1" x2="1062.9" y2="339.9"/><line x1="1037.2" y1="375.1" x2="1043.8" y2="270.1"/><line x1="1037.2" y1="375.1" x2="1279.0" y2="348.0"/><line x1="888.4" y1="901.9" x2="943.6" y2="711.3"/><line x1="782.3" y1="639.2" x2="766.0" y2="599.2"/><line x1="782.3" y1="639.2" x2="741.5" y2="634.9"/><line x1="782.3" y1="639.2" x2="649.2" y2="637.6"/><line x1="782.3" y1="639.2" x2="831.4" y2="549.2"/><line x1="782.3" y1="639.2" x2="744.3" y2="619.2"/><line x1="782.3" y1="639.2" x2="823.8" y2="471.3"/><line x1="888.4" y1="901.9" x2="931.2" y2="918.0"/><line x1="545.1" y1="426.4" x2="509.6" y2="413.0"/><line x1="928.2" y1="558.6" x2="958.5" y2="521.8"/><line x1="928.2" y1="558.6" x2="969.9" y2="533.2"/><line x1="545.1" y1="426.4" x2="520.3" y2="397.7"/><line x1="545.1" y1="426.4" x2="572.8" y2="396.9"/><line x1="545.1" y1="426.4" x2="509.8" y2="444.2"/><line x1="545.1" y1="426.4" x2="529.2" y2="387.0"/><line x1="545.1" y1="426.4" x2="578.9" y2="409.6"/><line x1="545.1" y1="426.4" x2="498.1" y2="410.3"/><line x1="1036.1" y1="768.9" x2="1084.6" y2="797.2"/><line x1="1036.1" y1="768.9" x2="1081.2" y2="811.4"/><line x1="888.4" y1="901.9" x2="872.7" y2="853.9"/><line x1="545.1" y1="426.4" x2="584.8" y2="397.9"/><line x1="545.1" y1="426.4" x2="506.7" y2="427.9"/><line x1="545.1" y1="426.4" x2="540.2" y2="385.5"/><line x1="545.1" y1="426.4" x2="578.8" y2="449.8"/><line x1="545.1" y1="426.4" x2="507.7" y2="399.4"/><line x1="545.1" y1="426.4" x2="562.1" y2="390.3"/><line x1="888.4" y1="901.9" x2="883.9" y2="941.2"/><line x1="1036.1" y1="768.9" x2="1093.5" y2="803.2"/><line x1="1215.3" y1="576.7" x2="1256.6" y2="583.1"/><line x1="1215.3" y1="576.7" x2="1248.1" y2="608.4"/><line x1="1215.3" y1="576.7" x2="1254.1" y2="556.6"/><line x1="883.4" y1="582.8" x2="951.1" y2="498.5"/><line x1="951.1" y1="498.5" x2="1009.8" y2="505.0"/><line x1="773.2" y1="1170.9" x2="751.1" y2="1146.7"/><line x1="751.1" y1="1146.7" x2="765.8" y2="1063.8"/><line x1="773.2" y1="1170.9" x2="737.0" y2="1144.4"/><line x1="737.0" y1="1144.4" x2="765.8" y2="1063.8"/><line x1="114.0" y1="858.3" x2="69.2" y2="857.6"/><line x1="888.4" y1="901.9" x2="814.4" y2="1001.2"/><line x1="814.4" y1="1001.2" x2="765.8" y2="1063.8"/><line x1="888.4" y1="901.9" x2="825.4" y2="999.1"/><line x1="825.4" y1="999.1" x2="765.8" y2="1063.8"/><line x1="888.4" y1="901.9" x2="835.2" y2="1014.5"/><line x1="835.2" y1="1014.5" x2="765.8" y2="1063.8"/><line x1="888.4" y1="901.9" x2="808.5" y2="990.8"/><line x1="808.5" y1="990.8" x2="765.8" y2="1063.8"/><line x1="888.4" y1="901.9" x2="846.1" y2="1014.6"/><line x1="846.1" y1="1014.6" x2="765.8" y2="1063.8"/><line x1="888.4" y1="901.9" x2="824.7" y2="1009.9"/><line x1="824.7" y1="1009.9" x2="765.8" y2="1063.8"/><line x1="982.8" y1="666.9" x2="1012.8" y2="629.9"/><line x1="391.0" y1="892.1" x2="385.5" y2="927.5"/><line x1="391.0" y1="892.1" x2="359.5" y2="875.5"/><line x1="773.2" y1="1170.9" x2="773.6" y2="1141.8"/><line x1="773.6" y1="1141.8" x2="765.8" y2="1063.8"/><line x1="545.1" y1="426.4" x2="526.4" y2="460.3"/><line x1="545.1" y1="426.4" x2="518.7" y2="374.8"/><line x1="545.1" y1="426.4" x2="586.3" y2="426.7"/><line x1="545.1" y1="426.4" x2="495.1" y2="423.8"/><line x1="545.1" y1="426.4" x2="551.5" y2="384.6"/><line x1="545.1" y1="426.4" x2="549.6" y2="469.4"/><line x1="545.1" y1="426.4" x2="516.4" y2="386.2"/><line x1="1215.3" y1="576.7" x2="1267.9" y2="587.9"/><line x1="545.1" y1="426.4" x2="499.1" y2="438.1"/><line x1="888.4" y1="901.9" x2="910.4" y2="874.5"/><line x1="888.4" y1="901.9" x2="925.3" y2="950.5"/><line x1="888.4" y1="901.9" x2="861.1" y2="875.2"/><line x1="888.4" y1="901.9" x2="921.1" y2="912.8"/><line x1="545.1" y1="426.4" x2="539.5" y2="465.2"/><line x1="888.4" y1="901.9" x2="877.1" y2="865.3"/><line x1="888.4" y1="901.9" x2="942.4" y2="919.4"/><line x1="888.4" y1="901.9" x2="855.0" y2="925.6"/><line x1="888.4" y1="901.9" x2="923.0" y2="890.5"/><line x1="782.3" y1="639.2" x2="752.4" y2="606.6"/><line x1="391.0" y1="892.1" x2="371.1" y2="860.2"/><line x1="1215.3" y1="576.7" x2="1269.8" y2="575.1"/><line x1="545.1" y1="426.4" x2="515.0" y2="455.0"/><line x1="982.8" y1="666.9" x2="1021.2" y2="558.7"/><line x1="1021.2" y1="558.7" x2="1009.8" y2="505.0"/><line x1="1060.5" y1="786.7" x2="904.2" y2="942.7"/><line x1="904.2" y1="942.7" x2="765.8" y2="1063.8"/><line x1="959.3" y1="787.9" x2="1016.3" y2="718.0"/><line x1="1016.3" y1="718.0" x2="1039.4" y2="667.6"/><line x1="959.3" y1="787.9" x2="1001.9" y2="711.6"/><line x1="1001.9" y1="711.6" x2="1039.4" y2="667.6"/><line x1="888.4" y1="901.9" x2="852.4" y2="866.5"/><line x1="1023.8" y1="943.0" x2="1081.3" y2="952.6"/><line x1="823.8" y1="471.3" x2="803.9" y2="425.0"/><line x1="831.4" y1="549.2" x2="932.2" y2="482.6"/><line x1="932.2" y1="482.6" x2="1009.8" y2="505.0"/><line x1="823.8" y1="471.3" x2="925.4" y2="453.2"/><line x1="925.4" y1="453.2" x2="1009.8" y2="505.0"/><line x1="649.2" y1="637.6" x2="607.1" y2="653.8"/><line x1="649.2" y1="637.6" x2="605.4" y2="627.3"/><line x1="649.2" y1="637.6" x2="601.8" y2="641.1"/><line x1="823.8" y1="471.3" x2="817.9" y2="420.2"/><line x1="1049.0" y1="689.8" x2="1051.1" y2="569.7"/><line x1="1051.1" y1="569.7" x2="1009.8" y2="505.0"/><line x1="943.6" y1="711.3" x2="990.6" y2="578.9"/><line x1="990.6" y1="578.9" x2="1009.8" y2="505.0"/><line x1="943.6" y1="711.3" x2="981.4" y2="572.4"/><line x1="981.4" y1="572.4" x2="1009.8" y2="505.0"/><line x1="1215.3" y1="576.7" x2="1263.2" y2="600.3"/><line x1="1279.0" y1="348.0" x2="1317.1" y2="341.5"/><line x1="888.4" y1="901.9" x2="918.0" y2="927.2"/><line x1="1279.0" y1="348.0" x2="1311.5" y2="373.1"/><line x1="1279.0" y1="348.0" x2="1328.5" y2="344.4"/><line x1="276.0" y1="848.9" x2="225.1" y2="866.8"/><line x1="225.1" y1="866.8" x2="205.2" y2="909.8"/><line x1="982.8" y1="666.9" x2="1010.0" y2="559.7"/><line x1="1010.0" y1="559.7" x2="1009.8" y2="505.0"/><line x1="773.2" y1="1170.9" x2="794.9" y2="1144.6"/><line x1="794.9" y1="1144.6" x2="765.8" y2="1063.8"/><line x1="1279.0" y1="348.0" x2="1321.4" y2="329.4"/><line x1="1279.0" y1="348.0" x2="1323.3" y2="355.9"/><line x1="1279.0" y1="348.0" x2="1311.0" y2="320.2"/><line x1="962.7" y1="247.4" x2="948.5" y2="204.1"/><line x1="1279.0" y1="348.0" x2="1321.9" y2="367.0"/><line x1="1043.8" y1="270.1" x2="1034.4" y2="226.2"/><line x1="1043.8" y1="270.1" x2="1051.5" y2="225.1"/><line x1="962.7" y1="247.4" x2="927.1" y2="220.7"/><line x1="962.7" y1="247.4" x2="935.2" y2="209.3"/><line x1="888.4" y1="901.9" x2="924.3" y2="938.8"/><line x1="888.4" y1="901.9" x2="848.9" y2="915.8"/><line x1="888.4" y1="901.9" x2="921.1" y2="872.1"/><line x1="888.4" y1="901.9" x2="910.2" y2="956.5"/><line x1="888.4" y1="901.9" x2="849.7" y2="879.2"/><line x1="888.4" y1="901.9" x2="942.3" y2="905.3"/><line x1="888.4" y1="901.9" x2="872.6" y2="942.2"/><line x1="888.4" y1="901.9" x2="913.3" y2="857.0"/><line x1="888.4" y1="901.9" x2="908.8" y2="934.4"/><line x1="888.4" y1="901.9" x2="842.7" y2="887.2"/><line x1="888.4" y1="901.9" x2="930.6" y2="880.6"/><line x1="888.4" y1="901.9" x2="898.1" y2="950.8"/><line x1="888.4" y1="901.9" x2="890.4" y2="860.9"/><line x1="888.4" y1="901.9" x2="932.6" y2="930.0"/><line x1="545.1" y1="426.4" x2="488.0" y2="433.3"/><line x1="545.1" y1="426.4" x2="540.7" y2="371.6"/><line x1="545.1" y1="426.4" x2="560.5" y2="464.6"/><line x1="545.1" y1="426.4" x2="491.9" y2="401.2"/><line x1="892.4" y1="673.3" x2="895.4" y2="621.6"/><line x1="545.1" y1="426.4" x2="502.6" y2="457.7"/><line x1="888.4" y1="901.9" x2="902.6" y2="863.8"/><line x1="545.1" y1="426.4" x2="582.4" y2="437.9"/><line x1="545.1" y1="426.4" x2="487.0" y2="415.8"/><line x1="545.1" y1="426.4" x2="574.7" y2="384.6"/><line x1="545.1" y1="426.4" x2="529.3" y2="472.1"/><line x1="545.1" y1="426.4" x2="506.2" y2="382.1"/><line x1="545.1" y1="426.4" x2="588.8" y2="414.6"/><line x1="545.1" y1="426.4" x2="494.3" y2="448.3"/><line x1="545.1" y1="426.4" x2="529.9" y2="372.7"/><line x1="545.1" y1="426.4" x2="568.2" y2="456.0"/><line x1="545.1" y1="426.4" x2="499.0" y2="391.5"/><line x1="888.4" y1="901.9" x2="944.0" y2="883.4"/><line x1="545.1" y1="426.4" x2="514.0" y2="467.1"/><line x1="888.4" y1="901.9" x2="885.2" y2="850.9"/><line x1="888.4" y1="901.9" x2="944.7" y2="930.6"/><line x1="888.4" y1="901.9" x2="843.4" y2="906.0"/><line x1="888.4" y1="901.9" x2="924.7" y2="861.7"/><line x1="888.4" y1="901.9" x2="913.8" y2="946.5"/><line x1="888.4" y1="901.9" x2="863.6" y2="861.6"/><line x1="888.4" y1="901.9" x2="949.0" y2="896.3"/><line x1="888.4" y1="901.9" x2="864.1" y2="933.7"/><line x1="888.4" y1="901.9" x2="900.8" y2="851.6"/><line x1="888.4" y1="901.9" x2="936.4" y2="941.8"/><line x1="888.4" y1="901.9" x2="848.4" y2="896.5"/><line x1="888.4" y1="901.9" x2="935.5" y2="870.8"/><line x1="413.3" y1="1003.1" x2="589.0" y2="1052.7"/><line x1="589.0" y1="1052.7" x2="765.8" y2="1063.8"/><line x1="293.6" y1="786.8" x2="286.2" y2="741.1"/><line x1="114.0" y1="858.3" x2="154.1" y2="886.1"/><line x1="154.1" y1="886.1" x2="205.2" y2="909.8"/><line x1="114.0" y1="858.3" x2="150.3" y2="862.0"/><line x1="150.3" y1="862.0" x2="205.2" y2="909.8"/><line x1="545.1" y1="426.4" x2="563.8" y2="377.2"/><line x1="247.2" y1="976.4" x2="206.6" y2="966.1"/><line x1="206.6" y1="966.1" x2="205.2" y2="909.8"/><line x1="293.6" y1="786.8" x2="234.8" y2="833.4"/><line x1="234.8" y1="833.4" x2="205.2" y2="909.8"/><line x1="422.4" y1="915.9" x2="452.1" y2="898.1"/><line x1="769.7" y1="993.8" x2="747.4" y2="1030.8"/><line x1="769.7" y1="993.8" x2="727.6" y2="1006.9"/><line x1="413.3" y1="1003.1" x2="305.4" y2="971.6"/><line x1="305.4" y1="971.6" x2="205.2" y2="909.8"/><line x1="422.4" y1="915.9" x2="441.8" y2="944.8"/><line x1="545.1" y1="426.4" x2="552.3" y2="372.0"/><line x1="892.4" y1="673.3" x2="807.8" y2="869.2"/><line x1="807.8" y1="869.2" x2="765.8" y2="1063.8"/><line x1="1215.3" y1="576.7" x2="1250.3" y2="545.9"/><line x1="888.4" y1="901.9" x2="950.9" y2="913.0"/><line x1="114.0" y1="858.3" x2="129.4" y2="898.1"/><line x1="129.4" y1="898.1" x2="205.2" y2="909.8"/><line x1="769.7" y1="993.8" x2="734.6" y2="1051.3"/><line x1="734.6" y1="1051.3" x2="765.8" y2="1063.8"/><line x1="413.3" y1="1003.1" x2="596.5" y2="1045.3"/><line x1="596.5" y1="1045.3" x2="765.8" y2="1063.8"/><line x1="391.0" y1="892.1" x2="576.9" y2="985.1"/><line x1="576.9" y1="985.1" x2="765.8" y2="1063.8"/><line x1="888.4" y1="901.9" x2="833.7" y2="990.8"/><line x1="833.7" y1="990.8" x2="765.8" y2="1063.8"/><line x1="888.4" y1="901.9" x2="836.7" y2="1003.4"/><line x1="836.7" y1="1003.4" x2="765.8" y2="1063.8"/><line x1="888.4" y1="901.9" x2="817.2" y2="977.4"/><line x1="817.2" y1="977.4" x2="765.8" y2="1063.8"/><line x1="888.4" y1="901.9" x2="849.3" y2="1004.9"/><line x1="849.3" y1="1004.9" x2="765.8" y2="1063.8"/><line x1="888.4" y1="901.9" x2="819.5" y2="989.1"/><line x1="819.5" y1="989.1" x2="765.8" y2="1063.8"/><line x1="888.4" y1="901.9" x2="828.4" y2="981.9"/><line x1="828.4" y1="981.9" x2="765.8" y2="1063.8"/><line x1="888.4" y1="901.9" x2="843.8" y2="994.5"/><line x1="843.8" y1="994.5" x2="765.8" y2="1063.8"/><line x1="888.4" y1="901.9" x2="807.1" y2="979.6"/><line x1="807.1" y1="979.6" x2="765.8" y2="1063.8"/><line x1="391.0" y1="892.1" x2="294.8" y2="900.3"/><line x1="294.8" y1="900.3" x2="205.2" y2="909.8"/><line x1="313.8" y1="885.1" x2="251.6" y2="888.3"/><line x1="251.6" y1="888.3" x2="205.2" y2="909.8"/><line x1="413.3" y1="1003.1" x2="310.5" y2="960.9"/><line x1="310.5" y1="960.9" x2="205.2" y2="909.8"/><line x1="114.0" y1="858.3" x2="145.3" y2="908.4"/><line x1="145.3" y1="908.4" x2="205.2" y2="909.8"/><line x1="413.3" y1="1003.1" x2="297.5" y2="959.8"/><line x1="297.5" y1="959.8" x2="205.2" y2="909.8"/><line x1="276.0" y1="848.9" x2="225.6" y2="854.1"/><line x1="225.6" y1="854.1" x2="205.2" y2="909.8"/><line x1="114.0" y1="858.3" x2="140.4" y2="884.1"/><line x1="140.4" y1="884.1" x2="205.2" y2="909.8"/><line x1="276.0" y1="848.9" x2="214.7" y2="857.8"/><line x1="214.7" y1="857.8" x2="205.2" y2="909.8"/><line x1="247.2" y1="976.4" x2="221.1" y2="948.3"/><line x1="221.1" y1="948.3" x2="205.2" y2="909.8"/><line x1="247.2" y1="976.4" x2="194.1" y2="966.3"/><line x1="194.1" y1="966.3" x2="205.2" y2="909.8"/><line x1="413.3" y1="1003.1" x2="305.3" y2="951.2"/><line x1="305.3" y1="951.2" x2="205.2" y2="909.8"/><line x1="413.3" y1="1003.1" x2="295.2" y2="971.6"/><line x1="295.2" y1="971.6" x2="205.2" y2="909.8"/><line x1="247.2" y1="976.4" x2="209.6" y2="953.5"/><line x1="209.6" y1="953.5" x2="205.2" y2="909.8"/><line x1="114.0" y1="858.3" x2="164.0" y2="864.0"/><line x1="164.0" y1="864.0" x2="205.2" y2="909.8"/><line x1="114.0" y1="858.3" x2="140.9" y2="896.0"/><line x1="140.9" y1="896.0" x2="205.2" y2="909.8"/><line x1="114.0" y1="858.3" x2="162.0" y2="876.4"/><line x1="162.0" y1="876.4" x2="205.2" y2="909.8"/><line x1="114.0" y1="858.3" x2="153.3" y2="897.8"/><line x1="153.3" y1="897.8" x2="205.2" y2="909.8"/><line x1="114.0" y1="858.3" x2="149.3" y2="874.1"/><line x1="149.3" y1="874.1" x2="205.2" y2="909.8"/><line x1="114.0" y1="858.3" x2="159.0" y2="853.2"/><line x1="159.0" y1="853.2" x2="205.2" y2="909.8"/><line x1="114.0" y1="858.3" x2="133.7" y2="909.8"/><line x1="133.7" y1="909.8" x2="205.2" y2="909.8"/><line x1="247.2" y1="976.4" x2="196.0" y2="954.2"/><line x1="196.0" y1="954.2" x2="205.2" y2="909.8"/><line x1="276.0" y1="848.9" x2="234.7" y2="872.8"/><line x1="234.7" y1="872.8" x2="205.2" y2="909.8"/><line x1="313.8" y1="885.1" x2="252.9" y2="902.8"/><line x1="252.9" y1="902.8" x2="205.2" y2="909.8"/><line x1="391.0" y1="892.1" x2="402.4" y2="857.6"/><line x1="293.6" y1="786.8" x2="273.1" y2="743.6"/><line x1="773.2" y1="1170.9" x2="759.5" y2="1126.3"/><line x1="759.5" y1="1126.3" x2="765.8" y2="1063.8"/><line x1="888.4" y1="901.9" x2="930.3" y2="903.3"/><line x1="888.4" y1="901.9" x2="888.2" y2="953.1"/><line x1="1215.3" y1="576.7" x2="1266.0" y2="559.9"/><line x1="962.9" y1="1064.8" x2="864.4" y2="1092.4"/><line x1="864.4" y1="1092.4" x2="765.8" y2="1063.8"/><line x1="1023.8" y1="943.0" x2="1077.9" y2="966.4"/><line x1="1049.0" y1="689.8" x2="1076.9" y2="647.3"/><line x1="773.2" y1="1170.9" x2="784.8" y2="1137.2"/><line x1="784.8" y1="1137.2" x2="765.8" y2="1063.8"/><line x1="773.2" y1="1170.9" x2="736.6" y2="1130.7"/><line x1="736.6" y1="1130.7" x2="765.8" y2="1063.8"/><line x1="773.2" y1="1170.9" x2="783.8" y2="1125.6"/><line x1="783.8" y1="1125.6" x2="765.8" y2="1063.8"/><line x1="773.2" y1="1170.9" x2="763.5" y2="1136.9"/><line x1="763.5" y1="1136.9" x2="765.8" y2="1063.8"/><line x1="773.2" y1="1170.9" x2="748.4" y2="1124.0"/><line x1="748.4" y1="1124.0" x2="765.8" y2="1063.8"/><line x1="773.2" y1="1170.9" x2="796.5" y2="1132.1"/><line x1="796.5" y1="1132.1" x2="765.8" y2="1063.8"/><line x1="773.2" y1="1170.9" x2="747.4" y2="1136.3"/><line x1="747.4" y1="1136.3" x2="765.8" y2="1063.8"/><line x1="773.2" y1="1170.9" x2="771.7" y2="1124.3"/><line x1="771.7" y1="1124.3" x2="765.8" y2="1063.8"/><line x1="488.8" y1="956.9" x2="650.6" y2="1039.2"/><line x1="650.6" y1="1039.2" x2="765.8" y2="1063.8"/><line x1="1215.3" y1="576.7" x2="1125.1" y2="522.6"/><line x1="1125.1" y1="522.6" x2="1009.8" y2="505.0"/><line x1="1215.3" y1="576.7" x2="1258.3" y2="569.6"/><line x1="1215.3" y1="576.7" x2="1252.6" y2="596.9"/><line x1="928.2" y1="558.6" x2="972.4" y2="492.1"/><line x1="972.4" y1="492.1" x2="1009.8" y2="505.0"/><line x1="987.4" y1="1027.8" x2="1029.5" y2="1061.5"/><line x1="892.4" y1="673.3" x2="864.4" y2="637.7"/><line x1="1060.5" y1="786.7" x2="1107.8" y2="781.5"/><line x1="962.9" y1="1064.8" x2="1004.5" y2="1103.8"/><line x1="892.4" y1="673.3" x2="874.8" y2="633.1"/><line x1="1049.0" y1="689.8" x2="1095.3" y2="668.4"/><line x1="769.7" y1="993.8" x2="733.5" y2="1021.2"/><line x1="892.4" y1="673.3" x2="891.5" y2="631.8"/><line x1="892.4" y1="673.3" x2="914.9" y2="637.2"/><line x1="1060.5" y1="786.7" x2="1092.5" y2="750.7"/><line x1="982.8" y1="666.9" x2="1004.1" y2="621.0"/><line x1="753.2" y1="929.2" x2="712.9" y2="947.7"/><line x1="413.3" y1="1003.1" x2="588.2" y2="1039.9"/><line x1="588.2" y1="1039.9" x2="765.8" y2="1063.8"/><line x1="247.2" y1="976.4" x2="229.9" y2="1017.1"/><line x1="293.6" y1="786.8" x2="262.5" y2="750.5"/><line x1="114.0" y1="858.3" x2="80.3" y2="828.4"/><line x1="114.0" y1="858.3" x2="71.8" y2="841.8"/><line x1="413.3" y1="1003.1" x2="410.9" y2="1044.1"/><line x1="413.3" y1="1003.1" x2="394.3" y2="1039.7"/><line x1="892.4" y1="673.3" x2="951.0" y2="569.9"/><line x1="951.0" y1="569.9" x2="1009.8" y2="505.0"/><line x1="892.4" y1="673.3" x2="878.7" y2="623.2"/><line x1="892.4" y1="673.3" x2="906.9" y2="628.2"/><line x1="892.4" y1="673.3" x2="945.4" y2="560.5"/><line x1="945.4" y1="560.5" x2="1009.8" y2="505.0"/><line x1="987.3" y1="813.5" x2="1028.1" y2="798.2"/><line x1="987.3" y1="813.5" x2="1010.0" y2="775.0"/><line x1="987.3" y1="813.5" x2="1020.5" y2="783.5"/><line x1="987.3" y1="813.5" x2="995.9" y2="770.5"/><line x1="962.9" y1="1064.8" x2="994.5" y2="1111.0"/><line x1="962.9" y1="1064.8" x2="1013.3" y2="1095.0"/><line x1="987.4" y1="1027.8" x2="1018.3" y2="1070.1"/><line x1="987.4" y1="1027.8" x2="1004.0" y2="1076.7"/><line x1="1049.0" y1="689.8" x2="1087.5" y2="649.2"/><line x1="1049.0" y1="689.8" x2="1095.4" y2="657.5"/><line x1="753.2" y1="929.2" x2="708.3" y2="924.4"/><line x1="753.2" y1="929.2" x2="717.3" y2="959.5"/><line x1="753.2" y1="929.2" x2="705.3" y2="938.7"/><line x1="1060.5" y1="786.7" x2="1102.6" y2="767.6"/><line x1="1060.5" y1="786.7" x2="1114.0" y2="792.6"/><line x1="1060.5" y1="786.7" x2="1103.8" y2="754.2"/><line x1="1060.5" y1="786.7" x2="1113.4" y2="763.8"/><line x1="1060.5" y1="786.7" x2="1117.9" y2="777.2"/><line x1="1060.5" y1="786.7" x2="1050.0" y2="625.8"/><line x1="1050.0" y1="625.8" x2="1009.8" y2="505.0"/><line x1="888.4" y1="901.9" x2="782.3" y2="639.2"/><line x1="848.5" y1="674.5" x2="1036.1" y2="768.9"/><line x1="848.5" y1="674.5" x2="888.4" y2="901.9"/><line x1="848.5" y1="674.5" x2="782.3" y2="639.2"/><line x1="848.5" y1="674.5" x2="928.2" y2="558.6"/><line x1="848.5" y1="674.5" x2="824.2" y2="697.6"/><line x1="848.5" y1="674.5" x2="545.1" y2="426.4"/><line x1="848.5" y1="674.5" x2="812.3" y2="678.3"/><line x1="848.5" y1="674.5" x2="814.4" y2="659.6"/><line x1="848.5" y1="674.5" x2="391.0" y2="892.1"/><line x1="848.5" y1="674.5" x2="1215.3" y2="576.7"/><line x1="848.5" y1="674.5" x2="773.2" y2="1170.9"/><line x1="848.5" y1="674.5" x2="1037.2" y2="375.1"/><line x1="848.5" y1="674.5" x2="825.6" y2="643.8"/><line x1="848.5" y1="674.5" x2="883.4" y2="582.8"/></g>
<circle cx="1036.1" cy="768.9" r="4.8" class="mid tw" style="--o:0.00"/><circle cx="888.4" cy="901.9" r="12.98" class="hub" filter="url(#glow)"/><circle cx="782.3" cy="639.2" r="6.05" class="mid"/><circle cx="928.2" cy="558.6" r="4.8" class="mid"/><circle cx="824.2" cy="697.6" r="3.55" class="leaf"/><circle cx="545.1" cy="426.4" r="10.4" class="hub" filter="url(#glow)"/><circle cx="812.3" cy="678.3" r="3.55" class="leaf"/><circle cx="814.4" cy="659.6" r="3.55" class="leaf"/><circle cx="391.0" cy="892.1" r="7.45" class="hub" filter="url(#glow)"/><circle cx="1215.3" cy="576.7" r="6.63" class="hub" filter="url(#glow)"/><circle cx="773.2" cy="1170.9" r="6.98" class="hub" filter="url(#glow)"/><circle cx="1037.2" cy="375.1" r="5.36" class="mid tw" style="--o:0.89"/><circle cx="825.6" cy="643.8" r="3.55" class="leaf"/><circle cx="883.4" cy="582.8" r="4.07" class="leaf"/><circle cx="1060.5" cy="786.7" r="6.25" class="hub" filter="url(#glow)"/><circle cx="753.2" cy="929.2" r="5.1" class="mid"/><circle cx="982.8" cy="666.9" r="5.1" class="mid"/><circle cx="769.7" cy="993.8" r="5.1" class="mid"/><circle cx="1049.0" cy="689.8" r="5.36" class="mid"/><circle cx="936.4" cy="892.3" r="3.55" class="leaf"/><circle cx="987.4" cy="1027.8" r="4.8" class="mid"/><circle cx="959.3" cy="787.9" r="4.47" class="leaf"/><circle cx="962.9" cy="1064.8" r="5.1" class="mid tw" style="--o:1.78"/><circle cx="987.3" cy="813.5" r="5.1" class="mid"/><circle cx="892.4" cy="673.3" r="6.45" class="hub" filter="url(#glow)"/><circle cx="413.3" cy="1003.1" r="6.45" class="hub" filter="url(#glow)"/><circle cx="114.0" cy="858.3" r="7.3" class="hub" filter="url(#glow)"/><circle cx="293.6" cy="786.8" r="5.1" class="mid"/><circle cx="386.0" cy="854.4" r="3.55" class="leaf"/><circle cx="313.8" cy="885.1" r="4.47" class="leaf"/><circle cx="247.2" cy="976.4" r="5.61" class="mid"/><circle cx="276.0" cy="848.9" r="5.1" class="mid"/><circle cx="418.2" cy="872.5" r="3.55" class="leaf"/><circle cx="422.4" cy="915.9" r="4.47" class="leaf tw" style="--o:2.68"/><circle cx="488.8" cy="956.9" r="4.07" class="leaf"/><circle cx="1023.8" cy="943.0" r="4.47" class="leaf"/><circle cx="962.7" cy="247.4" r="4.8" class="mid"/><circle cx="1046.8" cy="333.0" r="3.55" class="leaf"/><circle cx="1062.9" cy="339.9" r="3.55" class="leaf"/><circle cx="1043.8" cy="270.1" r="4.47" class="leaf"/><circle cx="1279.0" cy="348.0" r="5.84" class="mid"/><circle cx="943.6" cy="711.3" r="4.47" class="leaf"/><circle cx="766.0" cy="599.2" r="3.55" class="leaf"/><circle cx="741.5" cy="634.9" r="3.55" class="leaf"/><circle cx="649.2" cy="637.6" r="4.8" class="mid tw" style="--o:0.57"/><circle cx="831.4" cy="549.2" r="4.07" class="leaf"/><circle cx="744.3" cy="619.2" r="3.55" class="leaf"/><circle cx="823.8" cy="471.3" r="4.8" class="mid"/><circle cx="931.2" cy="918.0" r="3.55" class="leaf"/><circle cx="509.6" cy="413.0" r="3.55" class="leaf"/><circle cx="958.5" cy="521.8" r="3.55" class="leaf"/><circle cx="969.9" cy="533.2" r="3.55" class="leaf"/><circle cx="520.3" cy="397.7" r="3.55" class="leaf"/><circle cx="572.8" cy="396.9" r="3.55" class="leaf"/><circle cx="509.8" cy="444.2" r="3.55" class="leaf"/><circle cx="529.2" cy="387.0" r="3.55" class="leaf tw" style="--o:1.46"/><circle cx="578.9" cy="409.6" r="3.55" class="leaf"/><circle cx="498.1" cy="410.3" r="3.55" class="leaf"/><circle cx="1084.6" cy="797.2" r="3.55" class="leaf"/><circle cx="1081.2" cy="811.4" r="3.55" class="leaf"/><circle cx="872.7" cy="853.9" r="3.55" class="leaf"/><circle cx="584.8" cy="397.9" r="3.55" class="leaf"/><circle cx="506.7" cy="427.9" r="3.55" class="leaf"/><circle cx="540.2" cy="385.5" r="3.55" class="leaf"/><circle cx="578.8" cy="449.8" r="3.55" class="leaf"/><circle cx="507.7" cy="399.4" r="3.55" class="leaf"/><circle cx="562.1" cy="390.3" r="3.55" class="leaf tw" style="--o:2.35"/><circle cx="883.9" cy="941.2" r="3.55" class="leaf"/><circle cx="1093.5" cy="803.2" r="3.55" class="leaf"/><circle cx="1256.6" cy="583.1" r="3.55" class="leaf"/><circle cx="1248.1" cy="608.4" r="3.55" class="leaf"/><circle cx="1254.1" cy="556.6" r="3.55" class="leaf"/><circle cx="951.1" cy="498.5" r="4.07" class="leaf"/><circle cx="1009.8" cy="505.0" r="6.81" class="hub" filter="url(#glow)"/><circle cx="751.1" cy="1146.7" r="4.07" class="leaf"/><circle cx="765.8" cy="1063.8" r="9.8" class="hub" filter="url(#glow)"/><circle cx="737.0" cy="1144.4" r="4.07" class="leaf"/><circle cx="69.2" cy="857.6" r="3.55" class="leaf tw" style="--o:0.24"/><circle cx="814.4" cy="1001.2" r="4.07" class="leaf"/><circle cx="825.4" cy="999.1" r="4.07" class="leaf"/><circle cx="835.2" cy="1014.5" r="4.07" class="leaf"/><circle cx="808.5" cy="990.8" r="4.07" class="leaf"/><circle cx="846.1" cy="1014.6" r="4.07" class="leaf"/><circle cx="824.7" cy="1009.9" r="4.07" class="leaf"/><circle cx="1012.8" cy="629.9" r="3.55" class="leaf"/><circle cx="385.5" cy="927.5" r="3.55" class="leaf"/><circle cx="359.5" cy="875.5" r="3.55" class="leaf"/><circle cx="773.6" cy="1141.8" r="4.07" class="leaf"/><circle cx="526.4" cy="460.3" r="3.55" class="leaf tw" style="--o:1.14"/><circle cx="518.7" cy="374.8" r="3.55" class="leaf"/><circle cx="586.3" cy="426.7" r="3.55" class="leaf"/><circle cx="495.1" cy="423.8" r="3.55" class="leaf"/><circle cx="551.5" cy="384.6" r="3.55" class="leaf"/><circle cx="549.6" cy="469.4" r="3.55" class="leaf"/><circle cx="516.4" cy="386.2" r="3.55" class="leaf"/><circle cx="1267.9" cy="587.9" r="3.55" class="leaf"/><circle cx="499.1" cy="438.1" r="3.55" class="leaf"/><circle cx="910.4" cy="874.5" r="3.55" class="leaf"/><circle cx="925.3" cy="950.5" r="3.55" class="leaf"/><circle cx="861.1" cy="875.2" r="3.55" class="leaf tw" style="--o:2.03"/><circle cx="921.1" cy="912.8" r="3.55" class="leaf"/><circle cx="539.5" cy="465.2" r="3.55" class="leaf"/><circle cx="877.1" cy="865.3" r="3.55" class="leaf"/><circle cx="942.4" cy="919.4" r="3.55" class="leaf"/><circle cx="855.0" cy="925.6" r="3.55" class="leaf"/><circle cx="923.0" cy="890.5" r="3.55" class="leaf"/><circle cx="752.4" cy="606.6" r="3.55" class="leaf"/><circle cx="371.1" cy="860.2" r="3.55" class="leaf"/><circle cx="1269.8" cy="575.1" r="3.55" class="leaf"/><circle cx="515.0" cy="455.0" r="3.55" class="leaf"/><circle cx="1021.2" cy="558.7" r="4.07" class="leaf tw" style="--o:2.92"/><circle cx="904.2" cy="942.7" r="4.07" class="leaf"/><circle cx="1016.3" cy="718.0" r="4.07" class="leaf"/><circle cx="1039.4" cy="667.6" r="4.07" class="leaf"/><circle cx="1001.9" cy="711.6" r="4.07" class="leaf"/><circle cx="852.4" cy="866.5" r="3.55" class="leaf"/><circle cx="1081.3" cy="952.6" r="3.55" class="leaf"/><circle cx="803.9" cy="425.0" r="3.55" class="leaf"/><circle cx="932.2" cy="482.6" r="4.07" class="leaf"/><circle cx="925.4" cy="453.2" r="4.07" class="leaf"/><circle cx="607.1" cy="653.8" r="3.55" class="leaf"/><circle cx="605.4" cy="627.3" r="3.55" class="leaf tw" style="--o:0.81"/><circle cx="601.8" cy="641.1" r="3.55" class="leaf"/><circle cx="817.9" cy="420.2" r="3.55" class="leaf"/><circle cx="1051.1" cy="569.7" r="4.07" class="leaf"/><circle cx="990.6" cy="578.9" r="4.07" class="leaf"/><circle cx="981.4" cy="572.4" r="4.07" class="leaf"/><circle cx="1263.2" cy="600.3" r="3.55" class="leaf"/><circle cx="1317.1" cy="341.5" r="3.55" class="leaf"/><circle cx="918.0" cy="927.2" r="3.55" class="leaf"/><circle cx="1311.5" cy="373.1" r="3.55" class="leaf"/><circle cx="1328.5" cy="344.4" r="3.55" class="leaf"/><circle cx="225.1" cy="866.8" r="4.07" class="leaf tw" style="--o:1.70"/><circle cx="205.2" cy="909.8" r="9.15" class="hub" filter="url(#glow)"/><circle cx="1010.0" cy="559.7" r="4.07" class="leaf"/><circle cx="794.9" cy="1144.6" r="4.07" class="leaf"/><circle cx="1321.4" cy="329.4" r="3.55" class="leaf"/><circle cx="1323.3" cy="355.9" r="3.55" class="leaf"/><circle cx="1311.0" cy="320.2" r="3.55" class="leaf"/><circle cx="948.5" cy="204.1" r="3.55" class="leaf"/><circle cx="1321.9" cy="367.0" r="3.55" class="leaf"/><circle cx="1034.4" cy="226.2" r="3.55" class="leaf"/><circle cx="1051.5" cy="225.1" r="3.55" class="leaf"/><circle cx="927.1" cy="220.7" r="3.55" class="leaf tw" style="--o:2.59"/><circle cx="935.2" cy="209.3" r="3.55" class="leaf"/><circle cx="924.3" cy="938.8" r="3.55" class="leaf"/><circle cx="848.9" cy="915.8" r="3.55" class="leaf"/><circle cx="921.1" cy="872.1" r="3.55" class="leaf"/><circle cx="910.2" cy="956.5" r="3.55" class="leaf"/><circle cx="849.7" cy="879.2" r="3.55" class="leaf"/><circle cx="942.3" cy="905.3" r="3.55" class="leaf"/><circle cx="872.6" cy="942.2" r="3.55" class="leaf"/><circle cx="913.3" cy="857.0" r="3.55" class="leaf"/><circle cx="908.8" cy="934.4" r="3.55" class="leaf"/><circle cx="842.7" cy="887.2" r="3.55" class="leaf tw" style="--o:0.49"/><circle cx="930.6" cy="880.6" r="3.55" class="leaf"/><circle cx="898.1" cy="950.8" r="3.55" class="leaf"/><circle cx="890.4" cy="860.9" r="3.55" class="leaf"/><circle cx="932.6" cy="930.0" r="3.55" class="leaf"/><circle cx="488.0" cy="433.3" r="3.55" class="leaf"/><circle cx="540.7" cy="371.6" r="3.55" class="leaf"/><circle cx="560.5" cy="464.6" r="3.55" class="leaf"/><circle cx="491.9" cy="401.2" r="3.55" class="leaf"/><circle cx="895.4" cy="621.6" r="3.55" class="leaf"/><circle cx="502.6" cy="457.7" r="3.55" class="leaf"/><circle cx="902.6" cy="863.8" r="3.55" class="leaf tw" style="--o:1.38"/><circle cx="582.4" cy="437.9" r="3.55" class="leaf"/><circle cx="487.0" cy="415.8" r="3.55" class="leaf"/><circle cx="574.7" cy="384.6" r="3.55" class="leaf"/><circle cx="529.3" cy="472.1" r="3.55" class="leaf"/><circle cx="506.2" cy="382.1" r="3.55" class="leaf"/><circle cx="588.8" cy="414.6" r="3.55" class="leaf"/><circle cx="494.3" cy="448.3" r="3.55" class="leaf"/><circle cx="529.9" cy="372.7" r="3.55" class="leaf"/><circle cx="568.2" cy="456.0" r="3.55" class="leaf"/><circle cx="499.0" cy="391.5" r="3.55" class="leaf"/><circle cx="944.0" cy="883.4" r="3.55" class="leaf tw" style="--o:2.27"/><circle cx="514.0" cy="467.1" r="3.55" class="leaf"/><circle cx="885.2" cy="850.9" r="3.55" class="leaf"/><circle cx="944.7" cy="930.6" r="3.55" class="leaf"/><circle cx="843.4" cy="906.0" r="3.55" class="leaf"/><circle cx="924.7" cy="861.7" r="3.55" class="leaf"/><circle cx="913.8" cy="946.5" r="3.55" class="leaf"/><circle cx="863.6" cy="861.6" r="3.55" class="leaf"/><circle cx="949.0" cy="896.3" r="3.55" class="leaf"/><circle cx="864.1" cy="933.7" r="3.55" class="leaf"/><circle cx="900.8" cy="851.6" r="3.55" class="leaf"/><circle cx="936.4" cy="941.8" r="3.55" class="leaf tw" style="--o:0.16"/><circle cx="848.4" cy="896.5" r="3.55" class="leaf"/><circle cx="935.5" cy="870.8" r="3.55" class="leaf"/><circle cx="589.0" cy="1052.7" r="4.07" class="leaf"/><circle cx="286.2" cy="741.1" r="3.55" class="leaf"/><circle cx="154.1" cy="886.1" r="4.07" class="leaf"/><circle cx="150.3" cy="862.0" r="4.07" class="leaf"/><circle cx="563.8" cy="377.2" r="3.55" class="leaf"/><circle cx="206.6" cy="966.1" r="4.07" class="leaf"/><circle cx="234.8" cy="833.4" r="4.07" class="leaf"/><circle cx="452.1" cy="898.1" r="3.55" class="leaf"/><circle cx="747.4" cy="1030.8" r="3.55" class="leaf tw" style="--o:1.05"/><circle cx="727.6" cy="1006.9" r="3.55" class="leaf"/><circle cx="305.4" cy="971.6" r="4.07" class="leaf"/><circle cx="441.8" cy="944.8" r="3.55" class="leaf"/><circle cx="552.3" cy="372.0" r="3.55" class="leaf"/><circle cx="807.8" cy="869.2" r="4.07" class="leaf"/><circle cx="1250.3" cy="545.9" r="3.55" class="leaf"/><circle cx="950.9" cy="913.0" r="3.55" class="leaf"/><circle cx="129.4" cy="898.1" r="4.07" class="leaf"/><circle cx="734.6" cy="1051.3" r="4.07" class="leaf"/><circle cx="596.5" cy="1045.3" r="4.07" class="leaf"/><circle cx="576.9" cy="985.1" r="4.07" class="leaf tw" style="--o:1.95"/><circle cx="833.7" cy="990.8" r="4.07" class="leaf"/><circle cx="836.7" cy="1003.4" r="4.07" class="leaf"/><circle cx="817.2" cy="977.4" r="4.07" class="leaf"/><circle cx="849.3" cy="1004.9" r="4.07" class="leaf"/><circle cx="819.5" cy="989.1" r="4.07" class="leaf"/><circle cx="828.4" cy="981.9" r="4.07" class="leaf"/><circle cx="843.8" cy="994.5" r="4.07" class="leaf"/><circle cx="807.1" cy="979.6" r="4.07" class="leaf"/><circle cx="294.8" cy="900.3" r="4.07" class="leaf"/><circle cx="251.6" cy="888.3" r="4.07" class="leaf"/><circle cx="310.5" cy="960.9" r="4.07" class="leaf tw" style="--o:2.84"/><circle cx="145.3" cy="908.4" r="4.07" class="leaf"/><circle cx="297.5" cy="959.8" r="4.07" class="leaf"/><circle cx="225.6" cy="854.1" r="4.07" class="leaf"/><circle cx="140.4" cy="884.1" r="4.07" class="leaf"/><circle cx="214.7" cy="857.8" r="4.07" class="leaf"/><circle cx="221.1" cy="948.3" r="4.07" class="leaf"/><circle cx="194.1" cy="966.3" r="4.07" class="leaf"/><circle cx="305.3" cy="951.2" r="4.07" class="leaf"/><circle cx="295.2" cy="971.6" r="4.07" class="leaf"/><circle cx="209.6" cy="953.5" r="4.07" class="leaf"/><circle cx="164.0" cy="864.0" r="4.07" class="leaf tw" style="--o:0.73"/><circle cx="140.9" cy="896.0" r="4.07" class="leaf"/><circle cx="162.0" cy="876.4" r="4.07" class="leaf"/><circle cx="153.3" cy="897.8" r="4.07" class="leaf"/><circle cx="149.3" cy="874.1" r="4.07" class="leaf"/><circle cx="159.0" cy="853.2" r="4.07" class="leaf"/><circle cx="133.7" cy="909.8" r="4.07" class="leaf"/><circle cx="196.0" cy="954.2" r="4.07" class="leaf"/><circle cx="234.7" cy="872.8" r="4.07" class="leaf"/><circle cx="252.9" cy="902.8" r="4.07" class="leaf"/><circle cx="402.4" cy="857.6" r="3.55" class="leaf"/><circle cx="273.1" cy="743.6" r="3.55" class="leaf tw" style="--o:1.62"/><circle cx="759.5" cy="1126.3" r="4.07" class="leaf"/><circle cx="930.3" cy="903.3" r="3.55" class="leaf"/><circle cx="888.2" cy="953.1" r="3.55" class="leaf"/><circle cx="1266.0" cy="559.9" r="3.55" class="leaf"/><circle cx="864.4" cy="1092.4" r="4.07" class="leaf"/><circle cx="1077.9" cy="966.4" r="3.55" class="leaf"/><circle cx="1076.9" cy="647.3" r="3.55" class="leaf"/><circle cx="784.8" cy="1137.2" r="4.07" class="leaf"/><circle cx="736.6" cy="1130.7" r="4.07" class="leaf"/><circle cx="783.8" cy="1125.6" r="4.07" class="leaf"/><circle cx="763.5" cy="1136.9" r="4.07" class="leaf tw" style="--o:2.51"/><circle cx="748.4" cy="1124.0" r="4.07" class="leaf"/><circle cx="796.5" cy="1132.1" r="4.07" class="leaf"/><circle cx="747.4" cy="1136.3" r="4.07" class="leaf"/><circle cx="771.7" cy="1124.3" r="4.07" class="leaf"/><circle cx="650.6" cy="1039.2" r="4.07" class="leaf"/><circle cx="1125.1" cy="522.6" r="4.07" class="leaf"/><circle cx="1258.3" cy="569.6" r="3.55" class="leaf"/><circle cx="1252.6" cy="596.9" r="3.55" class="leaf"/><circle cx="972.4" cy="492.1" r="4.07" class="leaf"/><circle cx="1029.5" cy="1061.5" r="3.55" class="leaf"/><circle cx="864.4" cy="637.7" r="3.55" class="leaf tw" style="--o:0.41"/><circle cx="1107.8" cy="781.5" r="3.55" class="leaf"/><circle cx="1004.5" cy="1103.8" r="3.55" class="leaf"/><circle cx="874.8" cy="633.1" r="3.55" class="leaf"/><circle cx="1095.3" cy="668.4" r="3.55" class="leaf"/><circle cx="733.5" cy="1021.2" r="3.55" class="leaf"/><circle cx="891.5" cy="631.8" r="3.55" class="leaf"/><circle cx="914.9" cy="637.2" r="3.55" class="leaf"/><circle cx="1092.5" cy="750.7" r="3.55" class="leaf"/><circle cx="1004.1" cy="621.0" r="3.55" class="leaf"/><circle cx="712.9" cy="947.7" r="3.55" class="leaf"/><circle cx="588.2" cy="1039.9" r="4.07" class="leaf tw" style="--o:1.30"/><circle cx="229.9" cy="1017.1" r="3.55" class="leaf"/><circle cx="262.5" cy="750.5" r="3.55" class="leaf"/><circle cx="80.3" cy="828.4" r="3.55" class="leaf"/><circle cx="71.8" cy="841.8" r="3.55" class="leaf"/><circle cx="410.9" cy="1044.1" r="3.55" class="leaf"/><circle cx="394.3" cy="1039.7" r="3.55" class="leaf"/><circle cx="951.0" cy="569.9" r="4.07" class="leaf"/><circle cx="878.7" cy="623.2" r="3.55" class="leaf"/><circle cx="906.9" cy="628.2" r="3.55" class="leaf"/><circle cx="945.4" cy="560.5" r="4.07" class="leaf"/><circle cx="1028.1" cy="798.2" r="3.55" class="leaf tw" style="--o:2.19"/><circle cx="1010.0" cy="775.0" r="3.55" class="leaf"/><circle cx="1020.5" cy="783.5" r="3.55" class="leaf"/><circle cx="995.9" cy="770.5" r="3.55" class="leaf"/><circle cx="994.5" cy="1111.0" r="3.55" class="leaf"/><circle cx="1013.3" cy="1095.0" r="3.55" class="leaf"/><circle cx="1018.3" cy="1070.1" r="3.55" class="leaf"/><circle cx="1004.0" cy="1076.7" r="3.55" class="leaf"/><circle cx="1087.5" cy="649.2" r="3.55" class="leaf"/><circle cx="1095.4" cy="657.5" r="3.55" class="leaf"/><circle cx="708.3" cy="924.4" r="3.55" class="leaf"/><circle cx="717.3" cy="959.5" r="3.55" class="leaf tw" style="--o:0.08"/><circle cx="705.3" cy="938.7" r="3.55" class="leaf"/><circle cx="1102.6" cy="767.6" r="3.55" class="leaf"/><circle cx="1114.0" cy="792.6" r="3.55" class="leaf"/><circle cx="1103.8" cy="754.2" r="3.55" class="leaf"/><circle cx="1113.4" cy="763.8" r="3.55" class="leaf"/><circle cx="1117.9" cy="777.2" r="3.55" class="leaf"/><circle cx="1050.0" cy="625.8" r="4.07" class="leaf"/>
<circle cx="848.5" cy="674.5" r="8" class="root" filter="url(#glow)"/>
</g>
<g transform="translate(752,752)">
<circle r="12" fill="#0d0f14" fill-opacity="0.65"/>
<text x="0" y="26" text-anchor="middle" font-size="15" font-weight="700" fill="#f0f3f8" letter-spacing="0.5">Multiverso</text>
</g>
</svg>